<svg width="1901" height="32" viewBox="0 0 1901 32" fill="none" xmlns="http://www.w3.org/2000/svg">
<path d="M2.01089e-06 2.29036C1.91053e-06 3.43836 0.931005 4.36934 2.078 4.36934C11.624 4.36934 19.5019 11.6284 20.4919 20.9154L0.0780033 20.9154L0.0780029 25.0714L187.266 25.0714C187.47 25.1384 187.684 25.1844 187.911 25.1844C188.139 25.1844 188.353 25.1384 188.557 25.0714L228.469 25.0714C228.674 25.1384 228.888 25.1844 229.115 25.1844C229.343 25.1844 229.556 25.1384 229.761 25.0714L269.673 25.0714C269.877 25.1384 270.091 25.1844 270.319 25.1844C270.546 25.1844 270.76 25.1384 270.965 25.0714L1012.43 25.0715C1012.45 25.0725 1012.47 25.0774 1012.49 25.0774C1012.51 25.0774 1012.53 25.0725 1012.55 25.0715L1053.63 25.0715C1053.65 25.0725 1053.67 25.0774 1053.69 25.0774C1053.71 25.0774 1053.73 25.0725 1053.75 25.0715L1094.84 25.0715C1094.86 25.0725 1094.88 25.0774 1094.9 25.0774C1094.92 25.0774 1094.94 25.0725 1094.96 25.0715L1177.24 25.0715C1177.26 25.0725 1177.28 25.0775 1177.3 25.0775C1177.32 25.0775 1177.34 25.0725 1177.36 25.0715L1218.45 25.0715C1218.47 25.0725 1218.49 25.0775 1218.51 25.0775C1218.53 25.0775 1218.55 25.0725 1218.57 25.0715L1259.65 25.0715C1259.67 25.0725 1259.69 25.0775 1259.71 25.0775C1259.73 25.0775 1259.75 25.0725 1259.77 25.0715L1260.07 25.0715C1260.09 25.0725 1260.1 25.0775 1260.13 25.0775C1260.15 25.0775 1260.17 25.0725 1260.19 25.0715L1301.27 25.0715C1301.29 25.0725 1301.31 25.0775 1301.33 25.0775C1301.35 25.0775 1301.37 25.0725 1301.39 25.0715L1342.47 25.0715C1342.49 25.0725 1342.51 25.0775 1342.53 25.0775C1342.55 25.0775 1342.57 25.0725 1342.59 25.0715L1383.67 25.0715C1383.7 25.0725 1383.71 25.0775 1383.73 25.0775C1383.76 25.0775 1383.77 25.0725 1383.8 25.0715L1424.02 25.0715C1424.3 25.2085 1424.61 25.2924 1424.94 25.2924C1425.27 25.2924 1425.58 25.2085 1425.85 25.0715L1465.23 25.0715C1465.51 25.2085 1465.81 25.2924 1466.14 25.2924C1466.47 25.2924 1466.78 25.2085 1467.06 25.0715L1506.43 25.0715C1506.71 25.2085 1507.02 25.2924 1507.35 25.2924C1507.68 25.2924 1507.98 25.2085 1508.26 25.0715L1548.49 25.0715C1548.51 25.0725 1548.53 25.0775 1548.55 25.0775C1548.57 25.0775 1548.59 25.0725 1548.61 25.0715L1589.69 25.0715C1589.71 25.0725 1589.73 25.0775 1589.75 25.0775C1589.77 25.0775 1589.79 25.0725 1589.81 25.0715L1630.89 25.0715C1630.92 25.0725 1630.93 25.0775 1630.96 25.0775C1630.98 25.0775 1631 25.0725 1631.02 25.0715L1672.1 25.0715C1672.12 25.0725 1672.14 25.0775 1672.16 25.0775C1672.18 25.0775 1672.2 25.0725 1672.22 25.0715L1713.3 25.0715C1713.32 25.0725 1713.34 25.0775 1713.36 25.0775C1713.38 25.0775 1713.4 25.0725 1713.42 25.0715L1754.51 25.0715C1754.53 25.0725 1754.55 25.0775 1754.57 25.0775C1754.59 25.0775 1754.61 25.0725 1754.63 25.0715L1795.71 25.0715C1795.73 25.0725 1795.75 25.0775 1795.77 25.0775C1795.79 25.0775 1795.81 25.0725 1795.83 25.0715L1836.92 25.0715C1836.94 25.0725 1836.96 25.0775 1836.98 25.0775C1837 25.0775 1837.02 25.0725 1837.04 25.0715L1878.11 25.0715C1878.14 25.0725 1878.15 25.0775 1878.18 25.0775C1878.2 25.0775 1878.22 25.0725 1878.24 25.0715L1900.82 25.0715L1900.82 20.9155L1880.38 20.9155C1881.42 11.6805 1889.27 4.47754 1898.78 4.47754C1899.92 4.47754 1900.86 3.54656 1900.86 2.39856C1900.86 1.26556 1899.95 0.348561 1898.82 0.325561L1898.82 0.133545L1157.74 0.13348C1157.4 0.11748 1157.05 0.107479 1156.7 0.107479C1156.35 0.107479 1156.01 0.11848 1155.66 0.13348L1116.54 0.133476C1116.19 0.117476 1115.85 0.107475 1115.5 0.107475C1115.15 0.107475 1114.8 0.118476 1114.46 0.133476L992.926 0.133466C992.581 0.117466 992.235 0.107465 991.886 0.107464C991.537 0.107464 991.191 0.118465 990.846 0.133465L951.723 0.133462C951.378 0.117462 951.032 0.107461 950.683 0.107461C950.334 0.107461 949.988 0.118462 949.642 0.133462L910.519 0.133458C910.174 0.117458 909.828 0.107457 909.479 0.107457C909.13 0.107457 908.785 0.118458 908.439 0.133458L869.316 0.133455C868.971 0.117455 868.625 0.107454 868.276 0.107454C867.927 0.107454 867.581 0.118455 867.236 0.133455L827.695 0.133451C827.35 0.117451 827.004 0.10745 826.655 0.10745C826.306 0.10745 825.96 0.118451 825.615 0.133451L786.492 0.133448C786.147 0.117447 785.801 0.107446 785.452 0.107446C785.103 0.107446 784.758 0.118447 784.412 0.133447L747.203 0.133444C746.402 0.047444 745.589 0.000387285 744.765 0.000387213C743.941 0.000387141 743.128 0.0474437 742.327 0.133444L706 0.13344C705.198 0.0474404 704.386 0.000383683 703.562 0.00038361C702.739 0.000383539 701.925 0.0474401 701.124 0.13344L582.391 0.13343C581.589 0.0474296 580.777 0.000372876 579.953 0.000372804C579.13 0.000372732 578.316 0.0474293 577.515 0.133429L541.187 0.133426C540.386 0.047426 539.573 0.000369274 538.749 0.000369202C537.925 0.00036913 537.112 0.0474257 536.311 0.133426L499.985 0.133422C499.183 0.0474224 498.371 0.000365672 497.547 0.0003656C496.724 0.000365528 495.91 0.0474221 495.109 0.133422L458.782 0.133419C457.981 0.0474188 457.168 0.00036207 456.344 0.000361998C455.52 0.000361926 454.707 0.0474185 453.906 0.133418L417.162 0.133415C416.36 0.0474151 415.548 0.000358432 414.724 0.000358359C413.9 0.000358287 413.087 0.0474149 412.286 0.133415L375.96 0.133412C375.158 0.0474115 374.346 0.00035483 373.522 0.000354757C372.698 0.000354685 371.885 0.0474113 371.084 0.133411L2.08301 0.133379C0.93601 0.133379 0.005007 1.06438 0.0050069 2.21138C0.0050069 2.22538 0.00903522 2.2373 0.00903522 2.2513C0.00903522 2.2653 2.01212e-06 2.27636 2.01089e-06 2.29036ZM15.028 4.28829L30.751 4.28829C27.318 6.68529 24.576 10.0054 22.89 13.8884C21.203 10.0054 18.461 6.68629 15.028 4.28829ZM371.384 4.28832L375.652 4.28832C384.286 5.28432 391.128 12.2314 391.952 20.9154L355.084 20.9154C355.908 12.2314 362.751 5.28432 371.384 4.28832ZM412.587 4.28832L416.855 4.28832C425.488 5.28432 432.331 12.2314 433.156 20.9154L396.288 20.9154C397.112 12.2314 403.953 5.28432 412.587 4.28832ZM454.207 4.28833L458.476 4.28833C467.109 5.28433 473.951 12.2314 474.776 20.9154L437.909 20.9154C438.733 12.2314 445.574 5.28432 454.207 4.28833ZM495.411 4.28833L499.679 4.28833C508.313 5.28433 515.155 12.2314 515.979 20.9154L479.111 20.9154C479.936 12.2314 486.779 5.28433 495.411 4.28833ZM536.615 4.28833L540.883 4.28833C549.516 5.28433 556.359 12.2314 557.184 20.9154L520.316 20.9154C521.139 12.2314 527.981 5.28433 536.615 4.28833ZM577.818 4.28834L582.086 4.28834C590.72 5.28434 597.562 12.2314 598.386 20.9154L561.519 20.9154C562.343 12.2314 569.185 5.28434 577.818 4.28834ZM701.428 4.28835L705.696 4.28835C714.329 5.28435 721.172 12.2314 721.996 20.9154L685.129 20.9154C685.953 12.2314 692.795 5.28435 701.428 4.28835ZM742.632 4.28835L746.9 4.28835C755.078 5.23235 761.634 11.5194 763.005 19.5614C762.942 20.0084 762.893 20.4594 762.856 20.9154L726.331 20.9154C727.156 12.2314 733.998 5.28435 742.632 4.28835ZM784.932 4.28835L785.973 4.28835C795.318 4.55036 802.957 11.7474 803.881 20.9154L767.369 20.9154C767.335 20.4644 767.288 20.0154 767.226 19.5714C768.726 11.0554 776.051 4.53735 784.932 4.28835ZM826.135 4.28836L827.176 4.28836C836.521 4.55036 844.161 11.7474 845.084 20.9154L808.227 20.9154C809.151 11.7474 816.79 4.55036 826.135 4.28836ZM867.756 4.28836L868.797 4.28836C878.142 4.55036 885.781 11.7474 886.705 20.9154L849.848 20.9154C850.772 11.7474 858.411 4.55036 867.756 4.28836ZM908.959 4.28837L910 4.28837C919.345 4.55037 926.984 11.7474 927.908 20.9154L891.051 20.9154C891.975 11.7474 899.615 4.55036 908.959 4.28837ZM950.163 4.28837L951.204 4.28837C960.549 4.55037 968.188 11.7474 969.112 20.9154L932.254 20.9154C933.178 11.7474 940.819 4.55037 950.163 4.28837ZM991.366 4.28837L992.407 4.28837C1001.75 4.55037 1009.39 11.7474 1010.32 20.9154L973.459 20.9154C974.382 11.7474 982.021 4.55037 991.366 4.28837ZM1114.98 4.28838L1116.02 4.28838C1125.36 4.55038 1133 11.7475 1133.92 20.9155L1097.07 20.9155C1097.99 11.7475 1105.63 4.55038 1114.98 4.28838ZM1156.18 4.28839L1157.22 4.28839C1166.57 4.55039 1174.2 11.7475 1175.13 20.9155L1138.27 20.9155C1139.19 11.7475 1146.83 4.55039 1156.18 4.28839ZM1836.97 13.5325C1835.25 9.79246 1832.53 6.59845 1829.17 4.28845L1844.77 4.28845C1841.41 6.59945 1838.7 9.79247 1836.97 13.5325ZM1857.57 4.47754C1867.08 4.47754 1874.93 11.6805 1875.97 20.9155L1839.18 20.9155C1840.22 11.6805 1848.07 4.47753 1857.57 4.47754ZM1834.77 20.9155L1797.97 20.9155C1799.01 11.6805 1806.86 4.47753 1816.37 4.47753C1825.88 4.47753 1833.73 11.6805 1834.77 20.9155ZM1795.77 13.5325C1794.04 9.79246 1791.33 6.59844 1787.97 4.28844L1803.57 4.28844C1800.21 6.59944 1797.49 9.79246 1795.77 13.5325ZM1793.57 20.9155L1756.77 20.9155C1757.81 11.6805 1765.66 4.47753 1775.17 4.47753C1784.68 4.47753 1792.53 11.6805 1793.57 20.9155ZM1754.57 13.5325C1752.84 9.79246 1750.13 6.59844 1746.76 4.28844L1762.37 4.28844C1759 6.59944 1756.29 9.79246 1754.57 13.5325ZM1752.36 20.9155L1715.57 20.9155C1716.61 11.6805 1724.46 4.47752 1733.96 4.47752C1743.47 4.47753 1751.32 11.6805 1752.36 20.9155ZM1713.36 13.5325C1711.64 9.79245 1708.92 6.59844 1705.56 4.28844L1721.16 4.28844C1717.8 6.59944 1715.09 9.79245 1713.36 13.5325ZM1711.16 20.9155L1674.36 20.9155C1675.4 11.6805 1683.25 4.47752 1692.76 4.47752C1702.27 4.47752 1710.12 11.6805 1711.16 20.9155ZM1672.16 13.5325C1670.43 9.79245 1667.72 6.59843 1664.35 4.28843L1679.96 4.28843C1676.6 6.59943 1673.88 9.79245 1672.16 13.5325ZM1669.96 20.9155L1633.16 20.9155C1634.2 11.6805 1642.05 4.47752 1651.56 4.47752C1661.06 4.47752 1668.91 11.6805 1669.96 20.9155ZM1630.96 13.5324C1629.23 9.79245 1626.52 6.59843 1623.15 4.28843L1638.76 4.28843C1635.39 6.59943 1632.68 9.79245 1630.96 13.5324ZM1628.75 20.9155L1591.96 20.9155C1593 11.6805 1600.85 4.47751 1610.35 4.47751C1619.86 4.47751 1627.71 11.6805 1628.75 20.9155ZM1589.75 13.5324C1588.03 9.79244 1585.32 6.59842 1581.95 4.28842L1597.55 4.28843C1594.19 6.59943 1591.48 9.79244 1589.75 13.5324ZM1587.55 20.9155L1550.75 20.9155C1551.79 11.6805 1559.64 4.47751 1569.15 4.47751C1578.66 4.47751 1586.51 11.6805 1587.55 20.9155ZM1548.55 13.5324C1546.82 9.79244 1544.11 6.59842 1540.75 4.28842L1556.35 4.28842C1552.99 6.59942 1550.27 9.79244 1548.55 13.5324ZM1546.35 20.9155L1509.55 20.9155C1510.59 11.6805 1518.44 4.47751 1527.95 4.47751C1537.46 4.47751 1545.3 11.6805 1546.35 20.9155ZM1507.3 13.6405C1505.51 9.82847 1502.7 6.59242 1499.22 4.28842L1515.15 4.28842C1511.75 6.62042 1509.02 9.85347 1507.3 13.6405ZM1505.11 20.9155L1468.38 20.9155C1469.52 11.7845 1477.31 4.68942 1486.74 4.68942C1496.18 4.68942 1503.97 11.7845 1505.11 20.9155ZM1466.14 13.7464C1464.36 9.88942 1461.53 6.61341 1458.02 4.28841L1474.26 4.28841C1470.75 6.61341 1467.92 9.88942 1466.14 13.7464ZM1463.91 20.9155L1427.18 20.9155C1428.31 11.7845 1436.11 4.68941 1445.54 4.68941C1454.97 4.68941 1462.77 11.7845 1463.91 20.9155ZM1424.99 13.6405C1423.26 9.85446 1420.53 6.62041 1417.14 4.28841L1433.06 4.28841C1429.58 6.59241 1426.77 9.82846 1424.99 13.6405ZM1422.74 20.9155L1385.94 20.9155C1386.98 11.6805 1394.83 4.47749 1404.34 4.4775C1413.85 4.4775 1421.69 11.6805 1422.74 20.9155ZM1383.73 13.5324C1382.01 9.79243 1379.3 6.59841 1375.93 4.28841L1391.54 4.28841C1388.17 6.59941 1385.46 9.79243 1383.73 13.5324ZM1381.53 20.9155L1344.74 20.9155C1345.78 11.6805 1353.63 4.47749 1363.13 4.47749C1372.64 4.47749 1380.49 11.6805 1381.53 20.9155ZM1342.53 13.5324C1340.81 9.79242 1338.1 6.5984 1334.73 4.2884L1350.33 4.2884C1346.97 6.5994 1344.26 9.79242 1342.53 13.5324ZM1340.33 20.9155L1303.53 20.9155C1304.57 11.6805 1312.42 4.47749 1321.93 4.47749C1331.44 4.47749 1339.29 11.6805 1340.33 20.9155ZM1301.33 13.5324C1299.6 9.79242 1296.89 6.5984 1293.53 4.2884L1309.13 4.2884C1305.77 6.5994 1303.05 9.79242 1301.33 13.5324ZM1299.13 20.9155L1262.33 20.9155C1263.37 11.6805 1271.22 4.47748 1280.73 4.47748C1290.24 4.47749 1298.09 11.6805 1299.13 20.9155ZM1259.92 13.9935C1258.21 10.0545 1255.41 6.6924 1251.9 4.2884L1267.93 4.2884C1264.42 6.6924 1261.63 10.0545 1259.92 13.9935ZM1257.5 20.9155L1220.71 20.9155C1221.75 11.6805 1229.6 4.47748 1239.11 4.47748C1248.62 4.47748 1256.46 11.6805 1257.5 20.9155ZM1218.51 13.5324C1216.78 9.79241 1214.07 6.59839 1210.7 4.28839L1226.31 4.28839C1222.94 6.59939 1220.23 9.79241 1218.51 13.5324ZM1216.3 20.9155L1179.51 20.9155C1180.55 11.6805 1188.4 4.47748 1197.9 4.47748C1207.41 4.47748 1215.26 11.6805 1216.3 20.9155ZM1053.69 13.5324C1051.97 9.7924 1049.25 6.59838 1045.89 4.28838L1061.49 4.28838C1058.13 6.59938 1055.42 9.7924 1053.69 13.5324ZM1074.29 4.47747C1083.8 4.47747 1091.65 11.6805 1092.69 20.9155L1055.9 20.9155C1056.93 11.6805 1064.78 4.47747 1074.29 4.47747ZM1051.49 20.9155L1014.69 20.9154C1015.73 11.6805 1023.58 4.47746 1033.09 4.47746C1042.6 4.47746 1050.45 11.6805 1051.49 20.9155ZM641.757 13.4264C640.057 9.7424 637.401 6.59034 634.105 4.28834L649.409 4.28834C646.114 6.59034 643.456 9.7424 641.757 13.4264ZM662.358 4.3694C671.904 4.3694 679.783 11.6284 680.774 20.9154L643.944 20.9154C644.935 11.6284 652.813 4.3694 662.358 4.3694ZM639.57 20.9154L602.741 20.9154C603.732 11.6284 611.61 4.36939 621.156 4.36939C630.702 4.3694 638.578 11.6284 639.57 20.9154ZM311.522 13.4264C309.822 9.74237 307.166 6.59031 303.87 4.28831L319.174 4.28831C315.877 6.59031 313.221 9.74237 311.522 13.4264ZM332.122 4.36937C341.668 4.36937 349.547 11.6284 350.537 20.9154L313.708 20.9154C314.699 11.6284 322.577 4.36937 332.122 4.36937ZM309.334 20.9154L272.505 20.9154C273.495 11.6284 281.374 4.36937 290.92 4.36937C300.465 4.36937 308.343 11.6284 309.334 20.9154ZM270.269 13.5323C268.515 9.78133 265.768 6.58531 262.362 4.28831L277.97 4.28831C274.642 6.61231 271.966 9.80333 270.269 13.5323ZM268.098 20.9154L231.335 20.9154C232.424 11.7314 240.244 4.58335 249.716 4.58335C259.188 4.58335 267.009 11.7314 268.098 20.9154ZM229.115 13.6404C227.363 9.84336 224.597 6.60731 221.16 4.28831L237.071 4.28831C233.633 6.60631 230.866 9.84336 229.115 13.6404ZM226.895 20.9154L190.131 20.9154C191.22 11.7314 199.041 4.58335 208.512 4.58335C217.984 4.58335 225.806 11.7314 226.895 20.9154ZM187.959 13.5323C186.262 9.80332 183.586 6.6123 180.259 4.2883L195.866 4.2883C192.461 6.5853 189.713 9.78132 187.959 13.5323ZM185.724 20.9154L148.895 20.9154C149.886 11.6284 157.764 4.36935 167.31 4.36936C176.856 4.36936 184.733 11.6284 185.724 20.9154ZM146.707 13.4264C145.008 9.74236 142.351 6.5903 139.055 4.2883L154.36 4.2883C151.064 6.5903 148.407 9.74236 146.707 13.4264ZM144.52 20.9154L107.692 20.9154C108.683 11.6284 116.561 4.36935 126.106 4.36935C135.652 4.36935 143.53 11.6284 144.52 20.9154ZM105.505 13.4264C103.805 9.74236 101.149 6.59029 97.853 4.28829L113.157 4.2883C109.861 6.5903 107.204 9.74236 105.505 13.4264ZM103.318 20.9154L66.489 20.9154C67.479 11.6284 75.3579 4.36935 84.9039 4.36935C94.4489 4.36935 102.326 11.6284 103.318 20.9154ZM64.301 13.4264C62.601 9.74235 59.9449 6.59029 56.6489 4.28829L71.954 4.28829C68.657 6.59029 66 9.74235 64.301 13.4264ZM62.114 20.9154L25.286 20.9154C26.277 11.6284 34.155 4.36934 43.7 4.36934C53.245 4.36935 61.123 11.6284 62.114 20.9154ZM1878.18 13.5325C1876.45 9.79247 1873.74 6.59845 1870.37 4.28845L1885.98 4.28845C1882.61 6.59945 1879.9 9.79247 1878.18 13.5325ZM1185.1 4.28839C1181.77 6.57639 1179.08 9.73145 1177.35 13.4265C1175.68 9.75345 1173.06 6.60339 1169.8 4.28839L1185.1 4.28839ZM1143.6 4.28839C1140.37 6.58039 1137.77 9.69141 1136.1 13.3184C1134.42 9.69141 1131.82 6.58038 1128.59 4.28838L1143.6 4.28839ZM1094.85 13.4264C1093.12 9.73244 1090.43 6.57638 1087.09 4.28838L1102.4 4.28838C1099.14 6.60338 1096.52 9.75344 1094.85 13.4264ZM1020.29 4.28838C1016.96 6.57637 1014.26 9.73144 1012.54 13.4264C1010.86 9.75344 1008.24 6.60337 1004.98 4.28837L1020.29 4.28838ZM978.787 4.28837C975.561 6.58037 972.958 9.6914 971.284 13.3184C969.611 9.6914 967.008 6.58037 963.782 4.28837L978.787 4.28837ZM937.584 4.28837C934.357 6.58037 931.755 9.6914 930.081 13.3184C928.407 9.6914 925.805 6.58037 922.579 4.28837L937.584 4.28837ZM896.381 4.28836C893.154 6.58036 890.552 9.69139 888.879 13.3184C887.205 9.69139 884.603 6.58036 881.376 4.28836L896.381 4.28836ZM855.177 4.28836C851.815 6.67736 849.128 9.95445 847.466 13.7794C845.805 9.95445 843.117 6.67636 839.755 4.28836L855.177 4.28836ZM813.557 4.28836C810.33 6.58036 807.728 9.69139 806.054 13.3184C804.381 9.69139 801.778 6.58036 798.552 4.28836L813.557 4.28836ZM772.353 4.28835C769.305 6.45335 766.814 9.34936 765.136 12.7204C763.486 9.35936 761.026 6.46535 758.014 4.28835L772.353 4.28835ZM731.516 4.28835C728.359 6.56935 725.811 9.64142 724.163 13.2124C722.516 9.64142 719.968 6.56935 716.81 4.28835L731.516 4.28835ZM682.912 13.3184C681.211 9.68037 678.572 6.56735 675.308 4.28835L690.313 4.28835C687.124 6.59335 684.558 9.70238 682.912 13.3184ZM608.205 4.28834C604.941 6.56734 602.303 9.68137 600.601 13.3184C598.955 9.70237 596.388 6.59234 593.2 4.28834L608.205 4.28834ZM566.703 4.28834C563.545 6.56934 560.998 9.64141 559.35 13.2124C557.702 9.64141 555.155 6.56933 551.996 4.28833L566.703 4.28834ZM525.499 4.28833C522.342 6.56933 519.794 9.6414 518.146 13.2124C516.499 9.6414 513.951 6.56933 510.793 4.28833L525.499 4.28833ZM484.296 4.28833C481.138 6.56933 478.59 9.6414 476.942 13.2124C475.295 9.6414 472.747 6.56933 469.589 4.28833L484.296 4.28833ZM443.093 4.28832C439.8 6.66732 437.168 9.90433 435.531 13.6733C433.894 9.90433 431.262 6.66732 427.969 4.28832L443.093 4.28832ZM401.472 4.28832C398.315 6.56932 395.767 9.64139 394.119 13.2124C392.472 9.64139 389.924 6.56932 386.766 4.28832L401.472 4.28832ZM352.772 13.5294C351.075 9.80141 348.4 6.61132 345.073 4.28832L360.269 4.28832C357.018 6.63732 354.413 9.82341 352.772 13.5294Z" fill="white"/>
<path d="M0.0789795 31.3075L1900.82 31.3076L1900.82 27.1506L0.0789799 27.1505L0.0789795 31.3075Z" fill="white"/>
</svg>
