<svg width="129" height="149" viewBox="0 0 129 149" fill="none" xmlns="http://www.w3.org/2000/svg">
<path d="M47.3102 127.422V128.319L47.5485 128.418L47.6389 129.518C48.028 134.239 49.447 137.957 51.6286 139.973C52.5785 140.851 53.5209 141.322 55.0236 141.668C59.4853 142.697 62.5988 144.794 63.9277 147.665L64.3744 148.628L64.9038 147.534C65.3398 146.631 65.6418 146.233 66.6262 145.263C68.447 143.468 70.2353 142.527 73.2378 141.783C75.1393 141.312 75.6089 141.122 76.5984 140.416C78.9072 138.768 80.4578 135.229 81.0286 130.305C81.1415 129.331 81.2502 128.517 81.2707 128.497C81.2739 128.493 81.3664 128.454 81.3956 128.441V127.422H80.9389C77.3912 128.758 73.6383 129.679 69.7133 130.162C68.5805 130.301 62.2289 130.437 61.2789 130.342C56.5681 129.872 53.4051 129.248 50.0372 128.127C49.3698 127.905 48.7156 127.667 48.068 127.422H47.3102ZM48.7515 128.865C48.7664 128.865 48.7837 128.869 48.8028 128.876C48.9042 128.913 49.2925 129.045 49.6663 129.168C50.3355 129.388 50.3473 129.4 50.4256 130.004C50.8439 133.229 51.875 135.986 53.2276 137.496C54.1123 138.483 55.0135 138.982 56.628 139.382C57.3766 139.567 58.447 139.895 59.0071 140.111C61.1477 140.937 63.2028 142.689 63.9813 144.353L64.3897 145.226L64.805 144.329C65.5623 142.694 67.388 141.077 69.462 140.206C69.9593 139.997 71.0483 139.653 71.8816 139.441C73.7604 138.963 74.4864 138.574 75.4744 137.518C76.8033 136.097 77.6781 133.955 78.1821 130.886L78.4166 129.462L79.2877 129.168L80.1597 128.873L80.0907 129.549C79.6435 133.967 78.4039 137.303 76.5524 139.069C75.5851 139.991 74.7607 140.412 73.2884 140.737C70.6774 141.312 68.4284 142.338 66.6653 143.759C66.085 144.226 65.331 144.975 64.9896 145.423L64.3682 146.236L63.9116 145.614C62.9361 144.285 61.3537 143.021 59.5557 142.136C58.2525 141.495 57.3067 141.172 55.34 140.695C54.4927 140.49 53.7091 140.203 53.2652 139.937C50.8693 138.499 49.1571 134.683 48.707 129.778C48.6425 129.073 48.6469 128.867 48.7515 128.865ZM57.1766 130.975C57.226 130.97 57.3131 130.984 57.4295 131.003C60.1268 131.435 65.8851 131.611 68.6015 131.344C69.2488 131.281 70.1614 131.19 70.6289 131.143L71.4786 131.057L70.753 131.755C69.3676 133.087 67.8473 133.909 66.0761 134.284C64.9873 134.515 63.3708 134.511 62.2757 134.273C60.8132 133.956 59.1556 133.046 57.9911 131.921C57.2212 131.177 57.0284 130.99 57.1766 130.975Z" fill="white"/>
<path d="M34.3613 35.6969C34.1809 35.6961 34.0025 35.7014 33.8265 35.7138C32.4398 35.808 31.6336 36.1088 29.7855 37.2217C27.3914 38.6635 25.5954 39.272 23.2866 39.423C21.8214 39.5188 20.5882 39.3379 19.5368 38.8729C19.1346 38.695 18.7908 38.565 18.7721 38.584C18.7534 38.6028 18.8761 38.9424 19.0449 39.3379C19.9838 41.5377 19.7563 44.7413 18.4549 47.6413C18.229 48.1448 17.6946 49.1226 17.2673 49.8143C16.353 51.2944 15.9894 52.2696 15.8828 53.5296C15.646 56.3265 17.255 60.0758 20.2455 63.6987L21.0868 64.7185L20.598 65.9222C20.3292 66.584 20.0201 67.1992 19.9107 67.2891C19.8013 67.3789 19.48 67.4523 19.1974 67.4523C18.4078 67.4523 16.0848 67.824 14.7381 68.1656C12.143 68.8239 10.1446 69.852 8.77546 71.2342C7.66197 72.3584 7.29421 73.0824 6.76112 75.1994C5.66921 79.5348 3.75433 82.3307 0.939495 83.6996C-0.0821676 84.1965 -0.140273 84.2454 0.154902 84.3616C3.48637 85.6738 5.57154 88.4582 6.76112 93.1814C7.30923 95.358 7.66008 96.0265 8.90419 97.2699C10.8676 99.2323 14.1055 100.433 18.7729 100.928C19.488 101.004 20.0862 101.079 20.1023 101.095C20.1183 101.111 20.3705 101.676 20.6631 102.351L21.1956 103.579L20.5643 104.313C18.5425 106.666 16.9607 109.358 16.2751 111.615C15.9839 112.573 15.9262 113.011 15.9264 114.267C15.9268 116.114 16.0998 116.647 17.3914 118.779C17.895 119.61 18.4944 120.774 18.7231 121.365C19.8359 124.241 19.9079 127.133 18.9223 129.355C18.7052 129.842 18.7061 129.859 18.9342 129.763C20.75 129.004 22.2038 128.795 23.9995 129.034C26.053 129.307 28.0142 130.07 30.2617 131.469C31.6527 132.336 32.4391 132.596 33.8828 132.668C35.9186 132.768 37.8677 132.209 40.2622 130.838C41.517 130.12 43.6655 128.589 44.4848 127.831L44.9529 127.398L46.2501 127.938L47.5465 128.478L47.548 128.479C51.394 129.879 55.9702 130.96 60.4838 131.372C62.2521 131.49 64.2516 131.547 65.979 131.525C70.6522 131.369 75.2843 130.573 79.7056 129.087L79.7653 129.067C79.7844 129.061 79.8036 129.054 79.8227 129.047C80.567 128.795 81.3056 128.524 82.037 128.232C82.04 128.231 82.04 128.231 82.043 128.229C82.2609 128.138 82.2925 128.118 82.5793 128.002L83.1655 127.763L83.8512 127.485L84.7913 128.276C87.1232 130.239 89.9659 131.824 92.1806 132.397C93.2436 132.671 93.6573 132.715 94.755 132.666C96.2448 132.599 97.0434 132.347 98.3623 131.525C102.388 129.016 106.161 128.303 109.108 129.494C109.549 129.672 109.926 129.802 109.945 129.783C109.964 129.764 109.835 129.391 109.658 128.953C108.505 126.098 109.226 122.098 111.546 118.481C112.628 116.795 112.8 116.205 112.797 114.2C112.794 112.632 112.761 112.408 112.376 111.296C111.64 109.173 110.435 107.103 108.633 104.872L107.753 103.781L108.282 102.546C108.574 101.867 108.812 101.257 108.812 101.191C108.812 101.06 109.018 101.022 110.93 100.798C115.997 100.205 119.934 98.1859 121.233 95.5147C121.446 95.0754 121.825 93.9068 122.074 92.9173C122.576 90.9224 123.368 89.0965 124.291 87.8021C125.334 86.3405 127.214 84.7603 128.207 84.5112C128.768 84.3702 128.617 84.101 127.74 83.6791C125.721 82.7081 123.863 80.5134 122.788 77.8284C122.564 77.2676 122.207 76.105 121.996 75.2448C121.46 73.0604 121.129 72.4247 119.873 71.1632C118.952 70.2383 118.622 70.0065 117.312 69.368C116.339 68.8938 115.275 68.4992 114.299 68.2494C112.717 67.8442 110.374 67.4531 109.514 67.4502L109.008 67.4487L108.449 66.0442C108.142 65.2719 107.892 64.5976 107.894 64.5456C107.895 64.4935 108.29 63.9638 108.77 63.3687C111.352 60.1724 112.706 57.212 112.834 54.4853C112.915 52.7489 112.66 51.8026 111.68 50.1884C110.123 47.6267 109.431 45.8158 109.186 43.6619C109.01 42.1058 109.178 40.6203 109.658 39.4761C109.84 39.0447 109.989 38.6641 109.989 38.631C109.989 38.5979 109.645 38.7102 109.226 38.8808C106.23 40.0982 102.524 39.412 98.3577 36.868C97.0559 36.073 96.2909 35.8157 94.9335 35.7148C93.2861 35.5925 91.4496 36.0525 89.315 37.1224C88.1499 37.7064 85.9282 39.1782 84.8266 40.096L84.0527 40.7404L83.1363 40.3565V40.4906C78.1694 38.3517 72.8747 37.0737 67.4789 36.7116C66.6614 36.6898 65.7065 36.6771 64.4816 36.6771C62.7531 36.6771 61.5282 36.699 60.5739 36.7438C56.9925 37.0301 53.4549 37.7205 50.0287 38.8018C49.8874 38.8616 49.7109 38.9289 49.5184 38.9926C49.2614 39.0777 49.0579 39.1332 48.9177 39.1658C48.8827 39.1782 48.8477 39.1907 48.8127 39.2033L47.5783 39.6921L47.5599 39.7003L46.5172 40.1186C45.9336 40.3528 45.3059 40.6049 45.1226 40.6787C44.8216 40.8 44.6834 40.7275 43.6845 39.921C40.2535 37.1506 37.0673 35.7087 34.3613 35.6969ZM94.6271 36.7367C95.866 36.7396 96.7522 37.0455 98.052 37.8706C100.992 39.7369 103.901 40.6247 106.589 40.4758C107.272 40.4379 107.937 40.3647 108.067 40.3133C108.284 40.2275 108.294 40.277 108.197 40.9232C108.02 42.1107 108.112 44.0274 108.405 45.2584C108.783 46.8461 109.455 48.4156 110.537 50.2287C111.636 52.0724 111.82 52.6267 111.82 54.105C111.82 56.4679 110.687 59.1018 108.316 62.2543C107.843 62.8836 107.423 63.3979 107.382 63.3967C107.342 63.3955 107.126 63.0538 106.902 62.6382L106.494 61.8827L107.26 60.8429C108.293 59.441 109.41 57.1844 109.748 55.8182C109.958 54.9704 110.006 54.464 109.954 53.6606C109.875 52.4257 109.659 51.8362 108.714 50.2816C107.431 48.1715 106.855 46.3232 106.854 44.3067C106.853 43.1515 107.046 42.1904 107.422 41.4626C107.682 40.9605 107.612 40.9457 106.769 41.3232C105.895 41.7144 103.521 41.8099 102.226 41.5063C100.923 41.2008 99.5763 40.6287 98.2298 39.8084C96.5924 38.8109 96.0518 38.6375 94.5589 38.63C93.6139 38.6256 93.0814 38.6968 92.3354 38.9281C91.0493 39.3269 89.1369 40.3231 87.788 41.2964L86.7053 42.0772L85.9108 41.6366L85.1162 41.196L85.8165 40.6429C88.9341 38.1782 91.6568 36.8956 94.0724 36.7536C94.266 36.7417 94.4501 36.7364 94.6271 36.7367ZM34.29 36.7426C36.6019 36.7485 39.2589 37.8932 42.3597 40.2166C43.0547 40.7373 43.6401 41.212 43.66 41.2716C43.6798 41.3312 43.3428 41.5489 42.9114 41.7551L42.1268 42.1298L41.6341 41.7674C38.5471 39.4965 36.4657 38.6271 34.1452 38.6405C32.6848 38.6494 32.1802 38.8075 30.659 39.7377C28.3158 41.1706 26.6598 41.6937 24.4803 41.6892C23.3497 41.6863 22.9286 41.6275 22.1871 41.3659C21.6876 41.1896 21.2606 41.0641 21.2378 41.087C21.2149 41.1098 21.3171 41.4031 21.4653 41.7383C22.0037 42.9555 22.0272 45.2842 21.5183 47.035C21.2219 48.0546 20.6655 49.244 19.8985 50.4982C18.9671 52.0214 18.8079 52.5243 18.799 53.9837C18.7931 54.9265 18.8639 55.4629 19.0924 56.2072C19.473 57.4465 20.4787 59.4168 21.3321 60.5945C21.6941 61.0942 22.0807 61.6305 22.191 61.786C22.3764 62.0476 22.3611 62.1286 21.9895 62.8648C21.7685 63.3025 21.5735 63.6604 21.5566 63.6601C21.4768 63.6588 20.2378 62.0466 19.5974 61.1109C18.5583 59.5928 17.8718 58.2724 17.3884 56.8608C17.0177 55.778 16.9622 55.4425 16.9563 54.2457C16.9518 53.4906 17.0214 52.6371 17.1095 52.3494C17.1977 52.0617 17.6915 51.1209 18.2067 50.2584C19.218 48.5656 20.0108 46.7403 20.3659 45.2866C20.6025 44.3177 20.6929 41.4739 20.513 40.6648C20.4281 40.2828 20.4448 40.237 20.6409 40.3124C20.7649 40.36 21.4263 40.4321 22.1113 40.4725C24.7945 40.6304 27.7962 39.7178 30.7165 37.8559C31.9501 37.0694 32.6137 36.8348 33.8319 36.7564C33.983 36.746 34.1359 36.7411 34.29 36.7426ZM64.1927 37.6597C87.0172 37.4312 106.925 54.2886 110.382 76.9821C110.972 80.8555 111.055 86.1491 110.582 89.8022C109.235 100.219 104.607 109.618 97.1808 117.013C89.772 124.391 80.3698 128.913 69.7132 130.223C68.5804 130.362 62.2289 130.498 61.2788 130.403C56.5679 129.933 53.4051 129.309 50.0371 128.188C43.1454 125.894 37.3306 122.351 32.134 117.278C28.4012 113.634 25.7294 110.066 23.3157 105.506C18.8674 97.1003 17.1635 86.9357 18.5829 77.2648C19.764 69.217 23.1442 61.4933 28.3428 54.9645C29.7689 53.1734 33.5166 49.4123 35.2585 48.0234C43.4745 41.4724 52.7344 38.0337 63.1039 37.6835C63.4676 37.6716 63.8304 37.6633 64.1927 37.6597ZM35.6638 45.8505C35.9342 45.8445 36.1067 45.8608 36.1067 45.9049C36.1067 45.9412 35.4148 46.5206 34.5697 47.1929C33.7246 47.8651 32.0898 49.3598 30.9364 50.5136C29.783 51.6673 28.2287 53.3746 27.4823 54.3078L26.1254 56.005L26.205 54.7001C26.452 50.6849 28.8491 47.5141 32.576 46.2711C33.1579 46.077 34.8527 45.8676 35.6638 45.8505ZM92.9805 46.0075H93.644C94.0091 46.0075 94.7613 46.1007 95.3151 46.2152C99.4102 47.061 102.185 50.1184 102.682 54.3324C102.76 54.995 102.801 55.6039 102.774 55.6855C102.747 55.767 102.227 55.1973 101.618 54.4189C100.236 52.6519 96.1128 48.5025 94.3251 47.0787L92.9805 46.0075ZM19.6188 68.4619L19.3391 69.3216L19.0595 70.1813L18.3967 70.2655C15.9062 70.5827 13.3599 71.4284 11.8441 72.4422C10.2182 73.5298 9.61532 74.4677 9.0352 76.8134C8.20539 80.1689 6.49998 82.6411 4.2472 83.7545L3.2657 84.2395L3.87711 84.4801C6.18908 85.3882 8.16474 88.0937 9.04057 91.5514C9.65291 93.9687 10.2683 94.9325 11.8855 96.0038C13.4086 97.0129 15.0678 97.586 17.7232 98.0212L19.1506 98.2549L19.4471 99.1345C19.6443 99.7192 19.6919 100.008 19.5889 99.9957C19.5036 99.9853 19.2867 99.9565 19.1069 99.9306C18.9271 99.9046 18.2502 99.8185 17.6029 99.7391C15.6402 99.498 13.5644 98.9013 11.9805 98.1231C9.49791 96.9034 8.36566 95.6148 7.86445 93.437C6.90566 89.2711 5.22568 86.3607 2.69562 84.4824L2.30333 84.1905L2.69562 83.9009C3.53339 83.2816 4.73929 82.0272 5.3536 81.1356C6.51794 79.4457 7.10551 78.064 7.72346 75.5653C8.21383 73.5826 8.60828 72.8154 9.6589 71.7987C11.3864 70.1269 14.8759 68.867 18.6763 68.5423L19.6188 68.4619ZM109.725 68.5255C109.885 68.524 110.106 68.5359 110.349 68.5608C114.018 68.9434 117.356 70.1778 119.077 71.788C120.082 72.7277 120.62 73.7164 120.955 75.2383C121.756 78.8738 123.381 81.7653 125.635 83.5722C126.456 84.23 126.46 84.2359 126.169 84.4334C123.694 86.1186 121.836 89.2085 120.974 93.0763C120.613 94.7002 120.098 95.636 118.993 96.6782C117.494 98.0921 115.149 99.0594 111.839 99.6281C110.091 99.9284 109.279 99.9589 109.367 99.72C109.4 99.6301 109.526 99.2564 109.647 98.8894L109.866 98.2221L111.143 98.0098C114.08 97.522 116.323 96.6027 117.737 95.3067C118.792 94.3398 119.282 93.4234 119.72 91.5959C120.305 89.1551 121.45 87.0699 122.953 85.7099C123.68 85.0516 124.904 84.3223 125.281 84.3223C125.357 84.3223 125.419 84.2632 125.419 84.1913C125.419 84.1194 125.357 84.061 125.281 84.061C124.88 84.061 123.596 83.2828 122.859 82.5929C121.295 81.1306 120.357 79.3924 119.668 76.6816C119.227 74.9477 118.984 74.4227 118.224 73.5601C116.844 71.9949 114.462 70.9271 111.18 70.4026C110.505 70.2946 109.943 70.1903 109.931 70.1705C109.879 70.0803 109.466 68.6612 109.466 68.5706C109.466 68.5423 109.565 68.5274 109.725 68.5255ZM17.5715 76.8028L17.4856 77.2602C17.4383 77.5119 17.3065 78.6886 17.1922 79.8753C16.9488 82.4024 17.0167 87.3945 17.3262 89.7486C17.4303 90.5397 17.4982 91.2038 17.4779 91.2243C17.4576 91.2448 17.0314 90.8225 16.5301 90.2857C13.0692 86.5798 13.2546 80.9057 16.9523 77.3912L17.5715 76.8028ZM111.664 77.5261C111.861 77.5543 112.699 78.5726 113.316 79.5489C115.378 82.8109 115.098 87.0074 112.613 90.1286C112.264 90.5667 111.847 91.0429 111.686 91.1867L111.392 91.448L111.465 91.1867C111.889 89.654 112.065 80.865 111.717 78.6455C111.628 78.077 111.59 77.5772 111.633 77.5345C111.64 77.5271 111.65 77.5246 111.664 77.5261ZM21.6554 104.595L22.0691 105.41L22.4828 106.225L22.1557 106.657C20.6149 108.694 19.4305 110.875 19.0173 112.436C18.8806 112.952 18.7952 113.748 18.7982 114.463C18.8056 115.809 19.0242 116.506 19.8586 117.827C20.5919 118.988 21.0162 119.859 21.3902 120.973C22.0326 122.886 22.0625 125.293 21.4616 126.652C21.3154 126.982 21.2188 127.276 21.2462 127.303C21.2737 127.331 21.6125 127.225 21.9994 127.068C22.9683 126.675 25.2148 126.578 26.4771 126.874C27.77 127.178 29.1245 127.751 30.4438 128.553C31.9984 129.498 32.5871 129.714 33.822 129.793C35.1163 129.877 36.5149 129.555 38.1135 128.806C39.2038 128.295 41.008 127.161 41.8456 126.46L42.2893 126.088L43.0547 126.487C43.4756 126.707 43.8204 126.927 43.8209 126.977C43.8224 127.11 41.8146 128.651 40.7201 129.357C39.3533 130.238 37.5035 131.095 36.3144 131.396C35.0196 131.725 33.4344 131.732 32.4451 131.413C32.0495 131.286 31.2506 130.883 30.6698 130.518C28.6836 129.27 26.7882 128.478 24.9256 128.118C23.9151 127.922 21.8339 127.877 20.9735 128.031L20.4203 128.13L20.5161 127.704C20.5684 127.47 20.6078 126.572 20.6034 125.709C20.5915 123.13 19.9009 120.974 18.1722 118.12C17.0677 116.297 16.821 115.454 16.9233 113.861C17.0744 111.509 18.3907 108.748 20.8601 105.606L21.6554 104.595ZM107.331 104.927C107.343 104.924 107.352 104.926 107.359 104.935C109.43 107.389 110.889 109.892 111.51 112.054C111.8 113.066 111.842 113.429 111.798 114.569C111.741 116.066 111.532 116.619 110.257 118.648C109.453 119.927 108.648 121.932 108.341 123.421C108.098 124.596 108.025 126.641 108.193 127.574L108.292 128.132L107.735 128.032C106.587 127.827 104.371 127.957 103.002 128.312C101.657 128.66 99.2781 129.751 97.6996 130.742C97.2335 131.035 96.5608 131.361 96.2047 131.467C95.331 131.726 93.5216 131.7 92.4664 131.411C90.2547 130.807 88.0901 129.579 85.2932 127.34L84.8803 127.009L85.6986 126.606L86.5169 126.203L87.7443 127.085C89.2491 128.165 90.6298 128.911 92.009 129.386C92.9001 129.693 93.2679 129.747 94.4931 129.75C96.0874 129.752 96.6483 129.591 97.977 128.742C100.132 127.366 101.74 126.819 103.908 126.725C105.356 126.663 105.552 126.684 106.451 126.997C106.987 127.183 107.445 127.316 107.469 127.292C107.494 127.267 107.386 126.931 107.23 126.544C106.797 125.474 106.739 123.445 107.097 121.943C107.408 120.641 108.053 119.161 108.827 117.971C110.291 115.724 110.351 113.42 109.023 110.545C108.637 109.711 107.499 107.878 106.65 106.727C106.456 106.463 106.469 106.393 106.853 105.632C107.05 105.241 107.249 104.951 107.331 104.927ZM26.0457 111.978L26.3353 112.371C28.2811 115.005 31.9672 118.856 34.4716 120.87C35.2625 121.506 35.9957 122.105 36.1013 122.2C36.262 122.346 36.1147 122.372 35.1857 122.364C30.0027 122.315 26.0224 118.296 26.0411 113.129L26.0457 111.978ZM102.47 112.678L102.51 113.5C102.602 115.411 101.612 117.97 100.175 119.538C98.8692 120.963 97.3955 121.848 95.6048 122.284C94.6171 122.524 92.7041 122.704 92.5722 122.569C92.5223 122.518 93.1111 121.986 93.8801 121.387C96.5981 119.268 99.2399 116.66 101.534 113.832L102.47 112.678Z" fill="white"/>
<path fill-rule="evenodd" clip-rule="evenodd" d="M49.8389 65.9046C47.252 65.9491 45.191 68.0823 45.2355 70.6692C45.2659 72.4344 46.1536 73.379 47.5852 74.5384C47.7279 74.654 47.882 74.7748 48.0441 74.9018C48.6527 75.3788 49.3736 75.9438 50.0239 76.651C50.6495 75.9218 51.3505 75.3323 51.9424 74.8347C52.1 74.7021 52.2499 74.5761 52.3886 74.4557C53.7794 73.2477 54.634 72.2731 54.6036 70.508C54.5591 67.921 52.4258 65.86 49.8389 65.9046ZM41.8969 70.7267C41.8206 66.2959 45.3506 62.6422 49.7814 62.5659C54.2123 62.4896 57.866 66.0197 57.9423 70.4505C57.9996 73.7826 56.1225 75.6354 54.5782 76.9767C54.4292 77.1061 54.2859 77.2297 54.1484 77.3483C52.742 78.5611 51.9381 79.2544 51.7262 80.4179C51.5836 81.2008 50.9158 81.1113 50.1201 81.125C49.3243 81.1387 48.6219 81.2518 48.4524 80.4742C48.2005 79.3187 47.3732 78.6535 45.926 77.4898C45.7844 77.3761 45.637 77.2575 45.4836 77.1333C43.894 75.8459 41.9542 74.0588 41.8969 70.7267Z" fill="white"/>
<path fill-rule="evenodd" clip-rule="evenodd" d="M68.7581 65.5788C66.1712 65.6234 64.1102 67.7566 64.1547 70.3435C64.1851 72.1086 65.0728 73.0533 66.5043 74.2126C66.647 74.3282 66.8012 74.449 66.9633 74.5761C67.5719 75.0531 68.2928 75.618 68.9431 76.3252C69.5687 75.5961 70.2697 75.0066 70.8615 74.509C71.0192 74.3764 71.1691 74.2504 71.3077 74.1299C72.6985 72.922 73.5531 71.9474 73.5228 70.1822C73.4782 67.5953 71.345 65.5343 68.7581 65.5788ZM60.816 70.401C60.7397 65.9702 64.2698 62.3164 68.7006 62.2402C73.1314 62.1639 76.7852 65.6939 76.8614 70.1247C76.9188 73.4568 75.0417 75.3097 73.4973 76.651C73.3483 76.7804 73.205 76.904 73.0675 77.0226C71.6612 78.2354 70.8573 78.9287 70.6454 80.0921C70.5027 80.8751 69.7958 80.9755 69.0001 80.9892C68.2043 81.0029 67.541 80.9261 67.3715 80.1485C67.1197 78.993 66.2924 78.3278 64.8451 77.1641C64.7036 77.0503 64.5562 76.9318 64.4028 76.8076C62.8132 75.5202 60.8734 73.7331 60.816 70.401Z" fill="white"/>
<path fill-rule="evenodd" clip-rule="evenodd" d="M59.9228 102.002C57.3359 102.046 55.2026 99.9855 55.1581 97.3986C55.1277 95.6334 55.9824 94.6588 57.3731 93.4509C57.5118 93.3304 57.6617 93.2044 57.8193 93.0718C58.4112 92.5742 59.1122 91.9847 59.7378 91.2556C60.3881 91.9628 61.109 92.5277 61.7176 93.0047C61.8797 93.1318 62.0338 93.2526 62.1766 93.3682C63.6081 94.5275 64.4958 95.4722 64.5262 97.2373C64.5707 99.8242 62.5097 101.957 59.9228 102.002ZM51.8194 97.456C51.8957 101.887 55.5494 105.417 59.9803 105.341C64.4111 105.264 67.9411 101.611 67.8648 97.1798C67.8075 93.8477 65.8677 92.0606 64.2781 90.7732C64.1247 90.649 63.9773 90.5305 63.8358 90.4167C62.3885 89.253 61.5612 88.5878 61.3093 87.4323C61.1399 86.6547 60.4519 86.6645 59.6562 86.6782C58.8604 86.6919 58.1781 86.7057 58.0355 87.4887C57.8236 88.6521 57.0197 89.3454 55.6133 90.5582C55.4758 90.6768 55.3326 90.8004 55.1835 90.9298C53.6392 92.2711 51.7621 94.124 51.8194 97.456Z" fill="white"/>
<path fill-rule="evenodd" clip-rule="evenodd" d="M78.8419 101.676C76.255 101.721 74.1218 99.6598 74.0773 97.0728C74.0469 95.3077 74.9015 94.3331 76.2923 93.1251C76.431 93.0047 76.5808 92.8787 76.7385 92.7461C77.3303 92.2485 78.0313 91.659 78.6569 90.9298C79.3072 91.637 80.0281 92.202 80.6367 92.679C80.7988 92.806 80.953 92.9268 81.0957 93.0424C82.5273 94.2018 83.4149 95.1464 83.4453 96.9116C83.4899 99.4985 81.4289 101.632 78.8419 101.676ZM70.7386 97.1303C70.8149 101.561 74.4686 105.091 78.8994 105.015C83.3302 104.939 86.8603 101.285 86.784 96.8541C86.7266 93.522 84.7869 91.7349 83.1973 90.4475C83.0438 90.3233 82.8964 90.2047 82.7549 90.091C81.3076 88.9273 80.4804 88.2621 80.2285 87.1066C80.059 86.329 79.4584 86.4388 78.6627 86.4525C77.8669 86.4662 77.0973 86.38 76.9547 87.1629C76.7427 88.3264 75.9388 89.0197 74.5325 90.2325C74.395 90.3511 74.2517 90.4747 74.1027 90.6041C72.5583 91.9454 70.6812 93.7982 70.7386 97.1303Z" fill="white"/>
<path d="M63.2543 94.2937L65.4971 91.9723L46.0728 73.2054L43.8299 75.5268L63.2543 94.2937Z" fill="white"/>
<path d="M76.3486 92.9268C75.7292 93.5679 74.7075 93.5854 74.0664 92.9661C73.4254 92.3468 73.4078 91.325 74.0272 90.684L90.5512 73.581C91.1705 72.94 92.1923 72.9224 92.8333 73.5417C93.4743 74.1611 93.4919 75.1828 92.8726 75.8238L76.3486 92.9268Z" fill="white"/>
<path d="M82.1735 93.9679L84.4163 91.6465L64.9919 72.8797L62.7491 75.2011L82.1735 93.9679Z" fill="white"/>
<path d="M56.308 94.4132L53.9866 92.1704L72.7535 72.746L75.0749 74.9889L56.308 94.4132Z" fill="white"/>
<path d="M52.3124 74.6543C52.9318 74.0133 53.9535 73.9957 54.5945 74.615C55.2356 75.2344 55.2532 76.2561 54.6338 76.8971L38.1098 94.0001C37.4904 94.6412 36.4687 94.6587 35.8277 94.0394C35.1866 93.4201 35.169 92.3983 35.7884 91.7573L52.3124 74.6543Z" fill="white"/>
<path d="M47.5852 74.5384L48.0668 73.9437L48.0668 73.9437L47.5852 74.5384ZM48.0441 74.9018L47.5721 75.5041L47.5721 75.5041L48.0441 74.9018ZM50.0239 76.651L49.4607 77.1689C49.6087 77.3299 49.8185 77.4198 50.0371 77.4161C50.2558 77.4123 50.4623 77.3152 50.6047 77.1492L50.0239 76.651ZM51.9424 74.8347L52.4348 75.4204V75.4204L51.9424 74.8347ZM52.3886 74.4557L51.8868 73.8779L51.8868 73.8779L52.3886 74.4557ZM54.5782 76.9767L54.0764 76.399L54.0764 76.399L54.5782 76.9767ZM54.1484 77.3483L54.6481 77.9278L54.6481 77.9278L54.1484 77.3483ZM51.7262 80.4179L52.479 80.555V80.555L51.7262 80.4179ZM48.4524 80.4742L47.7047 80.6372V80.6372L48.4524 80.4742ZM45.926 77.4898L46.4055 76.8935L46.4055 76.8935L45.926 77.4898ZM45.4836 77.1333L45.9652 76.5386L45.9652 76.5386L45.4836 77.1333ZM66.5043 74.2126L66.9859 73.618L66.9859 73.618L66.5043 74.2126ZM66.9633 74.5761L66.4913 75.1784L66.4913 75.1784L66.9633 74.5761ZM68.9431 76.3252L68.3798 76.8432C68.5278 77.0042 68.7376 77.0941 68.9563 77.0903C69.1749 77.0866 69.3815 76.9895 69.5239 76.8235L68.9431 76.3252ZM70.8615 74.509L71.354 75.0947V75.0947L70.8615 74.509ZM71.3077 74.1299L70.8059 73.5522L70.8059 73.5522L71.3077 74.1299ZM73.4973 76.651L72.9956 76.0732L72.9956 76.0732L73.4973 76.651ZM73.0675 77.0226L73.5673 77.6021L73.5673 77.6021L73.0675 77.0226ZM70.6454 80.0921L71.3982 80.2293V80.2293L70.6454 80.0921ZM67.3715 80.1485L66.6238 80.3115V80.3115L67.3715 80.1485ZM64.8451 77.1641L65.3246 76.5678L65.3246 76.5678L64.8451 77.1641ZM64.4028 76.8076L64.8844 76.2129L64.8844 76.2129L64.4028 76.8076ZM57.3731 93.4509L57.8749 94.0286L57.8749 94.0286L57.3731 93.4509ZM57.8193 93.0718L57.3269 92.4861V92.4861L57.8193 93.0718ZM59.7378 91.2556L60.301 90.7376C60.153 90.5766 59.9432 90.4867 59.7246 90.4905C59.506 90.4942 59.2994 90.5913 59.157 90.7573L59.7378 91.2556ZM61.7176 93.0047L62.1896 92.4024V92.4024L61.7176 93.0047ZM62.1766 93.3682L61.695 93.9628L61.695 93.9628L62.1766 93.3682ZM64.2781 90.7732L63.7965 91.3679L63.7965 91.3679L64.2781 90.7732ZM63.8358 90.4167L64.3153 89.8203L64.3153 89.8203L63.8358 90.4167ZM61.3093 87.4323L62.057 87.2693V87.2693L61.3093 87.4323ZM58.0355 87.4887L57.2827 87.3515V87.3515L58.0355 87.4887ZM55.6133 90.5582L56.1131 91.1377V91.1377L55.6133 90.5582ZM55.1835 90.9298L55.6853 91.5076L55.6853 91.5076L55.1835 90.9298ZM76.2923 93.1251L76.7941 93.7029L76.7941 93.7029L76.2923 93.1251ZM76.7385 92.7461L76.246 92.1604V92.1604L76.7385 92.7461ZM78.6569 90.9298L79.2202 90.4119C79.0722 90.2509 78.8624 90.161 78.6437 90.1647C78.4251 90.1685 78.2185 90.2656 78.0761 90.4316L78.6569 90.9298ZM80.6367 92.679L81.1088 92.0767V92.0767L80.6367 92.679ZM81.0957 93.0424L80.6141 93.6371L80.6141 93.6371L81.0957 93.0424ZM83.1972 90.4475L82.7156 91.0422L82.7156 91.0422L83.1972 90.4475ZM82.7549 90.091L83.2344 89.4946L83.2344 89.4946L82.7549 90.091ZM80.2285 87.1066L80.9762 86.9436V86.9436L80.2285 87.1066ZM76.9547 87.1629L76.2018 87.0258V87.0258L76.9547 87.1629ZM74.5325 90.2325L75.0322 90.812V90.812L74.5325 90.2325ZM74.1027 90.6041L74.6045 91.1818L74.6045 91.1818L74.1027 90.6041ZM63.2543 94.2937L62.7226 94.844L63.2729 95.3757L63.8047 94.8254L63.2543 94.2937ZM65.4971 91.9723L66.0475 92.504L66.5792 91.9536L66.0288 91.4219L65.4971 91.9723ZM46.0728 73.2054L46.6045 72.6551L46.0541 72.1234L45.5224 72.6737L46.0728 73.2054ZM43.8299 75.5268L43.2796 74.9951L42.7479 75.5454L43.2982 76.0771L43.8299 75.5268ZM92.8726 75.8238L92.3223 75.2921L92.3223 75.2921L92.8726 75.8238ZM74.0272 90.684L73.4768 90.1523L74.0272 90.684ZM76.3486 92.9268L76.8989 93.4585V93.4585L76.3486 92.9268ZM82.1735 93.9679L81.6418 94.5183L82.1921 95.05L82.7238 94.4996L82.1735 93.9679ZM84.4163 91.6465L84.9666 92.1782L85.4983 91.6279L84.948 91.0962L84.4163 91.6465ZM64.9919 72.8797L65.5236 72.3293L64.9733 71.7976L64.4416 72.348L64.9919 72.8797ZM62.7491 75.2011L62.1988 74.6694L61.6671 75.2197L62.2174 75.7514L62.7491 75.2011ZM56.308 94.4132L55.7763 94.9636L56.3266 95.4953L56.8583 94.9449L56.308 94.4132ZM53.9866 92.1704L53.4363 91.6387L52.9046 92.1891L53.4549 92.7208L53.9866 92.1704ZM72.7535 72.746L73.2852 72.1957L72.7348 71.664L72.2031 72.2143L72.7535 72.746ZM75.0748 74.9889L75.6252 75.5206L76.1569 74.9702L75.6066 74.4385L75.0748 74.9889ZM35.7884 91.7573L36.3387 92.289V92.289L35.7884 91.7573ZM38.1098 94.0001L37.5594 93.4684L38.1098 94.0001ZM54.6338 76.8971L55.1842 77.4288L54.6338 76.8971ZM52.3124 74.6543L51.7621 74.1226V74.1226L52.3124 74.6543ZM45.2355 70.6692L46.0007 70.6561C45.9634 68.4917 47.6877 66.7069 49.8521 66.6697L49.8389 65.9046L49.8258 65.1394C46.8163 65.1913 44.4186 67.6729 44.4704 70.6824L45.2355 70.6692ZM47.5852 74.5384L48.0668 73.9437C47.3584 73.37 46.8563 72.9042 46.5199 72.4039C46.2002 71.9286 46.0134 71.3957 46.0007 70.6561L45.2355 70.6692L44.4704 70.6824C44.4881 71.7079 44.7603 72.5299 45.2499 73.258C45.7228 73.9612 46.3804 74.5474 47.1035 75.133L47.5852 74.5384ZM48.0441 74.9018L48.5162 74.2995C48.353 74.1716 48.2038 74.0547 48.0668 73.9437L47.5852 74.5384L47.1035 75.133C47.2519 75.2532 47.4111 75.3779 47.5721 75.5041L48.0441 74.9018ZM50.0239 76.651L50.5872 76.133C49.8888 75.3735 49.1202 74.7729 48.5162 74.2995L48.0441 74.9018L47.5721 75.5041C48.1853 75.9847 48.8585 76.514 49.4607 77.1689L50.0239 76.651ZM51.9424 74.8347L51.4499 74.249C50.8625 74.7429 50.115 75.3696 49.4432 76.1527L50.0239 76.651L50.6047 77.1492C51.184 76.474 51.8386 75.9218 52.4348 75.4204L51.9424 74.8347ZM52.3886 74.4557L51.8868 73.8779C51.7536 73.9936 51.6086 74.1156 51.4499 74.249L51.9424 74.8347L52.4348 75.4204C52.5914 75.2887 52.7462 75.1586 52.8904 75.0334L52.3886 74.4557ZM54.6036 70.508L53.8385 70.5211C53.8512 71.2608 53.6828 71.7998 53.3797 72.2858C53.0607 72.7974 52.575 73.2802 51.8868 73.8779L52.3886 74.4557L52.8904 75.0334C53.5929 74.4232 54.2299 73.8147 54.6783 73.0957C55.1426 72.3511 55.3864 71.5202 55.3687 70.4948L54.6036 70.508ZM49.8389 65.9046L49.8521 66.6697C52.0165 66.6324 53.8012 68.3568 53.8385 70.5211L54.6036 70.508L55.3687 70.4948C55.3169 67.4853 52.8352 65.0876 49.8258 65.1394L49.8389 65.9046ZM49.7814 62.5659L49.7683 61.8008C44.9149 61.8843 41.0482 65.8865 41.1318 70.7399L41.8969 70.7267L42.662 70.7135C42.593 66.7053 45.7864 63.4 49.7946 63.331L49.7814 62.5659ZM57.9423 70.4505L58.7074 70.4373C58.6238 65.5839 54.6217 61.7172 49.7683 61.8008L49.7814 62.5659L49.7946 63.331C53.8029 63.262 57.1082 66.4554 57.1772 70.4636L57.9423 70.4505ZM54.5782 76.9767L55.08 77.5544C56.659 76.183 58.7709 74.1289 58.7074 70.4373L57.9423 70.4505L57.1772 70.4636C57.2283 73.4362 55.5861 75.0877 54.0764 76.399L54.5782 76.9767ZM54.1484 77.3483L54.6481 77.9278C54.7855 77.8093 54.9298 77.6849 55.08 77.5544L54.5782 76.9767L54.0764 76.399C53.9285 76.5274 53.7863 76.6501 53.6486 76.7688L54.1484 77.3483ZM51.7262 80.4179L52.479 80.555C52.633 79.7099 53.1788 79.1949 54.6481 77.9278L54.1484 77.3483L53.6486 76.7688C52.3052 77.9273 51.2433 78.7988 50.9734 80.2807L51.7262 80.4179ZM50.1201 81.125L50.1333 81.8901C50.2864 81.8875 50.5383 81.8893 50.7117 81.8837C50.9061 81.8773 51.1395 81.8606 51.3687 81.7984C51.6074 81.7335 51.8689 81.612 52.0865 81.3787C52.3042 81.1454 52.4238 80.8583 52.479 80.555L51.7262 80.4179L50.9734 80.2807C50.9573 80.3689 50.9399 80.3642 50.9674 80.3347C50.9948 80.3054 51.013 80.3091 50.9675 80.3215C50.9123 80.3364 50.8208 80.3489 50.6617 80.354C50.4816 80.3599 50.3516 80.3557 50.1069 80.3599L50.1201 81.125ZM48.4524 80.4742L47.7047 80.6372C47.772 80.9461 47.9081 81.2316 48.1412 81.4566C48.3718 81.679 48.6412 81.788 48.8821 81.8426C49.1151 81.8955 49.3513 81.9041 49.5492 81.9037C49.7261 81.9033 49.9796 81.8928 50.1333 81.8901L50.1201 81.125L50.1069 80.3599C49.8626 80.3641 49.73 80.3729 49.546 80.3733C49.3832 80.3736 49.2839 80.3645 49.2207 80.3501C49.1653 80.3375 49.1776 80.3298 49.2039 80.3552C49.2328 80.3831 49.2175 80.3912 49.2 80.3112L48.4524 80.4742ZM45.926 77.4898L45.4464 78.0862C46.9585 79.302 47.5218 79.7979 47.7047 80.6372L48.4524 80.4742L49.2 80.3112C48.8792 78.8395 47.788 78.0051 46.4055 76.8935L45.926 77.4898ZM45.4836 77.1333L45.002 77.7279C45.1566 77.8532 45.3051 77.9725 45.4464 78.0862L45.926 77.4898L46.4055 76.8935C46.2638 76.7796 46.1174 76.6619 45.9652 76.5386L45.4836 77.1333ZM41.8969 70.7267L41.1318 70.7399C41.1953 74.4315 43.3767 76.4117 45.002 77.7279L45.4836 77.1333L45.9652 76.5386C44.4113 75.2801 42.7132 73.6861 42.662 70.7135L41.8969 70.7267ZM64.1547 70.3435L64.9198 70.3303C64.8825 68.166 66.6069 66.3812 68.7713 66.344L68.7581 65.5788L68.7449 64.8137C65.7354 64.8655 63.3378 67.3472 63.3896 70.3567L64.1547 70.3435ZM66.5043 74.2126L66.9859 73.618C66.2775 73.0443 65.7755 72.5785 65.4391 72.0782C65.1194 71.6029 64.9325 71.07 64.9198 70.3303L64.1547 70.3435L63.3896 70.3567C63.4072 71.3821 63.6794 72.2042 64.1691 72.9323C64.642 73.6355 65.2995 74.2217 66.0227 74.8073L66.5043 74.2126ZM66.9633 74.5761L67.4353 73.9738C67.2721 73.8459 67.123 73.729 66.9859 73.618L66.5043 74.2126L66.0227 74.8073C66.1711 74.9275 66.3302 75.0522 66.4913 75.1784L66.9633 74.5761ZM68.9431 76.3252L69.5064 75.8073C68.808 75.0478 68.0394 74.4472 67.4353 73.9738L66.9633 74.5761L66.4913 75.1784C67.1044 75.6589 67.7776 76.1883 68.3798 76.8432L68.9431 76.3252ZM70.8615 74.509L70.369 73.9233C69.7817 74.4172 69.0342 75.0439 68.3623 75.827L68.9431 76.3252L69.5239 76.8235C70.1032 76.1483 70.7577 75.596 71.354 75.0947L70.8615 74.509ZM71.3077 74.1299L70.8059 73.5522C70.6728 73.6679 70.5278 73.7898 70.369 73.9233L70.8615 74.509L71.354 75.0947C71.5106 74.963 71.6654 74.8329 71.8095 74.7077L71.3077 74.1299ZM73.5228 70.1822L72.7576 70.1954C72.7704 70.9351 72.602 71.474 72.2989 71.9601C71.9799 72.4716 71.4942 72.9545 70.8059 73.5522L71.3077 74.1299L71.8095 74.7077C72.5121 74.0975 73.1491 73.489 73.5975 72.77C74.0618 72.0254 74.3055 71.1945 74.2879 70.1691L73.5228 70.1822ZM68.7581 65.5788L68.7713 66.344C70.9356 66.3067 72.7204 68.031 72.7576 70.1954L73.5228 70.1822L74.2879 70.1691C74.2361 67.1596 71.7544 64.7619 68.7449 64.8137L68.7581 65.5788ZM68.7006 62.2402L68.6874 61.4751C63.834 61.5586 59.9673 65.5608 60.0509 70.4142L60.816 70.401L61.5811 70.3878C61.5121 66.3796 64.7055 63.0743 68.7138 63.0053L68.7006 62.2402ZM76.8614 70.1247L77.6265 70.1116C77.543 65.2582 73.5408 61.3915 68.6874 61.4751L68.7006 62.2402L68.7138 63.0053C72.722 62.9363 76.0273 66.1297 76.0963 70.1379L76.8614 70.1247ZM73.4973 76.651L73.9991 77.2287C75.5781 75.8573 77.6901 73.8032 77.6265 70.1116L76.8614 70.1247L76.0963 70.1379C76.1475 73.1105 74.5053 74.762 72.9956 76.0732L73.4973 76.651ZM73.0675 77.0226L73.5673 77.6021C73.7047 77.4836 73.8489 77.3592 73.9991 77.2287L73.4973 76.651L72.9956 76.0732C72.8477 76.2017 72.7054 76.3244 72.5678 76.4431L73.0675 77.0226ZM70.6454 80.0921L71.3982 80.2293C71.5521 79.3842 72.098 78.8692 73.5673 77.6021L73.0675 77.0226L72.5678 76.4431C71.2244 77.6016 70.1625 78.4731 69.8925 79.955L70.6454 80.0921ZM69.0001 80.9892L69.0133 81.7543C69.4103 81.7474 69.9216 81.7222 70.3664 81.5336C70.8817 81.3151 71.2777 80.8909 71.3982 80.2293L70.6454 80.0921L69.8925 79.955C69.877 80.0401 69.8544 80.068 69.8497 80.0737C69.8438 80.0809 69.8259 80.1005 69.7689 80.1246C69.6256 80.1854 69.3856 80.2172 68.9869 80.224L69.0001 80.9892ZM67.3715 80.1485L66.6238 80.3115C66.7627 80.9483 67.1445 81.367 67.6666 81.576C68.1115 81.7541 68.6184 81.7611 69.0133 81.7543L69.0001 80.9892L68.9869 80.224C68.5861 80.2309 68.3634 80.2064 68.2353 80.1551C68.1877 80.1361 68.1743 80.1209 68.1697 80.1155C68.1648 80.1096 68.1395 80.0786 68.1192 79.9855L67.3715 80.1485ZM64.8451 77.1641L64.3656 77.7605C65.8776 78.9763 66.4409 79.4722 66.6238 80.3115L67.3715 80.1485L68.1192 79.9855C67.7984 78.5138 66.7071 77.6794 65.3246 76.5678L64.8451 77.1641ZM64.4028 76.8076L63.9212 77.4022C64.0758 77.5274 64.2242 77.6468 64.3656 77.7605L64.8451 77.1641L65.3246 76.5678C65.183 76.4539 65.0366 76.3362 64.8844 76.2129L64.4028 76.8076ZM60.816 70.401L60.0509 70.4142C60.1145 74.1057 62.2959 76.086 63.9212 77.4022L64.4028 76.8076L64.8844 76.2129C63.3304 74.9544 61.6323 73.3604 61.5811 70.3878L60.816 70.401ZM55.1581 97.3986L54.393 97.4117C54.4448 100.421 56.9265 102.819 59.936 102.767L59.9228 102.002L59.9096 101.237C57.7452 101.274 55.9605 99.5498 55.9232 97.3854L55.1581 97.3986ZM57.3731 93.4509L56.8714 92.8731C56.1688 93.4833 55.5318 94.0918 55.0834 94.8108C54.6191 95.5554 54.3753 96.3863 54.393 97.4117L55.1581 97.3986L55.9232 97.3854C55.9105 96.6457 56.0789 96.1068 56.382 95.6207C56.701 95.1092 57.1867 94.6263 57.8749 94.0286L57.3731 93.4509ZM57.8193 93.0718L57.3269 92.4861C57.1703 92.6178 57.0155 92.7479 56.8714 92.8731L57.3731 93.4509L57.8749 94.0286C58.0081 93.9129 58.1531 93.791 58.3118 93.6575L57.8193 93.0718ZM59.7378 91.2556L59.157 90.7573C58.5777 91.4325 57.9231 91.9848 57.3269 92.4861L57.8193 93.0718L58.3118 93.6575C58.8992 93.1636 59.6467 92.5369 60.3185 91.7538L59.7378 91.2556ZM61.7176 93.0047L62.1896 92.4024C61.5764 91.9219 60.9033 91.3925 60.301 90.7376L59.7378 91.2556L59.1745 91.7735C59.8729 92.533 60.6415 93.1336 61.2455 93.607L61.7176 93.0047ZM62.1766 93.3682L62.6582 92.7735C62.5098 92.6533 62.3506 92.5286 62.1896 92.4024L61.7176 93.0047L61.2455 93.607C61.4088 93.7349 61.5579 93.8518 61.695 93.9628L62.1766 93.3682ZM64.5262 97.2373L65.2913 97.2241C65.2736 96.1987 65.0014 95.3766 64.5118 94.6485C64.0389 93.9453 63.3813 93.3591 62.6582 92.7735L62.1766 93.3682L61.695 93.9628C62.4033 94.5365 62.9054 95.0023 63.2418 95.5026C63.5615 95.9779 63.7483 96.5108 63.7611 97.2505L64.5262 97.2373ZM59.9228 102.002L59.936 102.767C62.9454 102.715 65.3431 100.234 65.2913 97.2241L64.5262 97.2373L63.7611 97.2505C63.7983 99.4148 62.074 101.2 59.9096 101.237L59.9228 102.002ZM59.9803 105.341L59.9671 104.576C55.9588 104.645 52.6536 101.451 52.5845 97.4429L51.8194 97.456L51.0543 97.4692C51.1379 102.323 55.1401 106.189 59.9934 106.106L59.9803 105.341ZM67.8648 97.1798L67.0997 97.193C67.1687 101.201 63.9753 104.507 59.9671 104.576L59.9803 105.341L59.9934 106.106C64.8468 106.022 68.7135 102.02 68.63 97.1666L67.8648 97.1798ZM64.2781 90.7732L63.7965 91.3679C65.3504 92.6264 67.0486 94.2204 67.0997 97.193L67.8648 97.1798L68.63 97.1666C68.5664 93.4751 66.385 91.4948 64.7597 90.1786L64.2781 90.7732ZM63.8358 90.4167L63.3562 91.013C63.4979 91.1269 63.6443 91.2446 63.7965 91.3679L64.2781 90.7732L64.7597 90.1786C64.6051 90.0534 64.4566 89.934 64.3153 89.8203L63.8358 90.4167ZM61.3093 87.4323L60.5617 87.5953C60.8825 89.067 61.9737 89.9014 63.3562 91.013L63.8358 90.4167L64.3153 89.8203C62.8032 88.6045 62.24 88.1086 62.057 87.2693L61.3093 87.4323ZM59.6562 86.6782L59.6693 87.4433C59.8738 87.4398 60.0388 87.4374 60.1866 87.4451C60.3345 87.4528 60.4275 87.4693 60.4858 87.4878C60.537 87.5041 60.5398 87.515 60.5314 87.506C60.5223 87.4961 60.543 87.5095 60.5617 87.5953L61.3093 87.4323L62.057 87.2693C61.991 86.9663 61.8621 86.6893 61.6515 86.463C61.4416 86.2376 61.1909 86.106 60.9494 86.0293C60.5119 85.8902 60.0001 85.907 59.643 85.9131L59.6562 86.6782ZM58.0355 87.4887L58.7883 87.6258C58.8043 87.5384 58.8248 87.5238 58.816 87.534C58.8077 87.5436 58.8095 87.5331 58.8588 87.5154C58.9152 87.4952 59.0066 87.4756 59.1534 87.4629C59.3003 87.4501 59.4648 87.4469 59.6693 87.4433L59.6562 86.6782L59.643 85.9131C59.2863 85.9192 58.7747 85.92 58.3431 86.0745C58.1045 86.1599 57.8592 86.3005 57.658 86.5333C57.4563 86.7667 57.3381 87.0475 57.2827 87.3515L58.0355 87.4887ZM55.6133 90.5582L56.1131 91.1377C57.4565 89.9792 58.5184 89.1077 58.7883 87.6258L58.0355 87.4887L57.2827 87.3515C57.1287 88.1966 56.5829 88.7116 55.1136 89.9787L55.6133 90.5582ZM55.1835 90.9298L55.6853 91.5076C55.8332 91.3791 55.9754 91.2564 56.1131 91.1377L55.6133 90.5582L55.1136 89.9787C54.9762 90.0972 54.8319 90.2216 54.6817 90.3521L55.1835 90.9298ZM51.8194 97.456L52.5845 97.4429C52.5334 94.4703 54.1756 92.8188 55.6853 91.5076L55.1835 90.9298L54.6817 90.3521C53.1027 91.7235 50.9908 93.7776 51.0543 97.4692L51.8194 97.456ZM74.0773 97.0728L73.3121 97.086C73.364 100.095 75.8456 102.493 78.8551 102.441L78.8419 101.676L78.8288 100.911C76.6644 100.948 74.8796 99.224 74.8424 97.0597L74.0773 97.0728ZM76.2923 93.1251L75.7905 92.5474C75.0879 93.1576 74.4509 93.7661 74.0025 94.4851C73.5382 95.2297 73.2945 96.0606 73.3121 97.086L74.0773 97.0728L74.8424 97.0597C74.8296 96.32 74.998 95.781 75.3011 95.295C75.6202 94.7834 76.1059 94.3006 76.7941 93.7029L76.2923 93.1251ZM76.7385 92.7461L76.246 92.1604C76.0894 92.2921 75.9346 92.4222 75.7905 92.5474L76.2923 93.1251L76.7941 93.7029C76.9273 93.5872 77.0723 93.4652 77.231 93.3318L76.7385 92.7461ZM78.6569 90.9298L78.0761 90.4316C77.4968 91.1068 76.8423 91.659 76.246 92.1604L76.7385 92.7461L77.231 93.3318C77.8184 92.8379 78.5658 92.2112 79.2377 91.4281L78.6569 90.9298ZM80.6367 92.679L81.1088 92.0767C80.4956 91.5961 79.8224 91.0668 79.2202 90.4119L78.6569 90.9298L78.0936 91.4478C78.792 92.2073 79.5607 92.8079 80.1647 93.2813L80.6367 92.679ZM81.0957 93.0424L81.5773 92.4478C81.429 92.3276 81.2698 92.2029 81.1088 92.0767L80.6367 92.679L80.1647 93.2813C80.3279 93.4092 80.477 93.5261 80.6141 93.6371L81.0957 93.0424ZM83.4453 96.9116L84.2104 96.8984C84.1928 95.8729 83.9206 95.0509 83.4309 94.3228C82.958 93.6196 82.3005 93.0334 81.5773 92.4478L81.0957 93.0424L80.6141 93.6371C81.3225 94.2108 81.8245 94.6766 82.161 95.1769C82.4806 95.6522 82.6675 96.185 82.6802 96.9247L83.4453 96.9116ZM78.8419 101.676L78.8551 102.441C81.8646 102.39 84.2623 99.9079 84.2104 96.8984L83.4453 96.9116L82.6802 96.9247C82.7175 99.0891 80.9931 100.874 78.8288 100.911L78.8419 101.676ZM78.8994 105.015L78.8862 104.25C74.878 104.319 71.5727 101.125 71.5037 97.1172L70.7386 97.1303L69.9735 97.1435C70.057 101.997 74.0592 105.864 78.9126 105.78L78.8994 105.015ZM86.784 96.8541L86.0189 96.8672C86.0879 100.876 82.8945 104.181 78.8862 104.25L78.8994 105.015L78.9126 105.78C83.766 105.696 87.6327 101.694 87.5491 96.8409L86.784 96.8541ZM83.1972 90.4475L82.7156 91.0422C84.2696 92.3007 85.9677 93.8947 86.0189 96.8672L86.784 96.8541L87.5491 96.8409C87.4856 93.1493 85.3041 91.1691 83.6789 89.8528L83.1972 90.4475ZM82.7549 90.091L82.2754 90.6873C82.417 90.8012 82.5634 90.9189 82.7156 91.0422L83.1972 90.4475L83.6789 89.8528C83.5242 89.7276 83.3758 89.6083 83.2344 89.4946L82.7549 90.091ZM80.2285 87.1066L79.4808 87.2695C79.8016 88.7413 80.8929 89.5757 82.2754 90.6873L82.7549 90.091L83.2344 89.4946C81.7224 88.2788 81.1591 87.7829 80.9762 86.9436L80.2285 87.1066ZM78.6627 86.4525L78.6758 87.2176C78.9196 87.2134 79.0472 87.2049 79.2195 87.2048C79.3722 87.2047 79.4516 87.2143 79.494 87.225C79.5233 87.2323 79.4965 87.2303 79.4657 87.1975C79.439 87.169 79.459 87.1693 79.4808 87.2695L80.2285 87.1066L80.9762 86.9436C80.9133 86.655 80.7946 86.3775 80.5827 86.1513C80.3668 85.9208 80.1083 85.8013 79.8669 85.7406C79.6384 85.6833 79.4079 85.6743 79.2189 85.6744C79.0495 85.6744 78.8036 85.6847 78.6495 85.6874L78.6627 86.4525ZM76.9547 87.1629L77.7075 87.3001C77.7198 87.2324 77.7321 87.244 77.7046 87.2709C77.6833 87.2917 77.6807 87.2789 77.7507 87.2613C77.8257 87.2424 77.9362 87.2295 78.1051 87.224C78.2935 87.2179 78.434 87.2218 78.6758 87.2176L78.6627 86.4525L78.6495 85.6874C78.3389 85.6927 77.7995 85.6707 77.3768 85.7772C77.1371 85.8376 76.8656 85.951 76.635 86.1762C76.3982 86.4076 76.2608 86.702 76.2018 87.0258L76.9547 87.1629ZM74.5325 90.2325L75.0322 90.812C76.3757 89.6535 77.4376 88.782 77.7075 87.3001L76.9547 87.1629L76.2018 87.0258C76.0479 87.8709 75.502 88.3859 74.0327 89.653L74.5325 90.2325ZM74.1027 90.6041L74.6045 91.1818C74.7523 91.0534 74.8946 90.9307 75.0322 90.812L74.5325 90.2325L74.0327 89.653C73.8954 89.7715 73.7511 89.8959 73.6009 90.0264L74.1027 90.6041ZM70.7386 97.1303L71.5037 97.1172C71.4525 94.1446 73.0947 92.4931 74.6045 91.1818L74.1027 90.6041L73.6009 90.0264C72.0219 91.3978 69.9099 93.4519 69.9735 97.1435L70.7386 97.1303ZM63.2543 94.2937L63.8047 94.8254L66.0475 92.504L65.4971 91.9723L64.9468 91.4406L62.704 93.7619L63.2543 94.2937ZM65.4971 91.9723L66.0288 91.4219L46.6045 72.6551L46.0728 73.2054L45.541 73.7557L64.9654 92.5226L65.4971 91.9723ZM46.0728 73.2054L45.5224 72.6737L43.2796 74.9951L43.8299 75.5268L44.3803 76.0585L46.6231 73.7371L46.0728 73.2054ZM43.8299 75.5268L43.2982 76.0771L62.7226 94.844L63.2543 94.2937L63.786 93.7433L44.3616 74.9765L43.8299 75.5268ZM74.0272 90.684L74.5775 91.2157L91.1015 74.1127L90.5512 73.581L90.0009 73.0493L73.4768 90.1523L74.0272 90.684ZM92.8726 75.8238L92.3223 75.2921L75.7982 92.3951L76.3486 92.9268L76.8989 93.4585L93.4229 76.3555L92.8726 75.8238ZM92.8333 73.5417L92.3016 74.0921C92.6387 74.4177 92.648 74.955 92.3223 75.2921L92.8726 75.8238L93.4229 76.3555C94.3359 75.4106 94.31 73.9044 93.365 72.9914L92.8333 73.5417ZM90.5512 73.581L91.1015 74.1127C91.4272 73.7756 91.9645 73.7664 92.3016 74.0921L92.8333 73.5417L93.365 72.9914C92.42 72.0784 90.9139 72.1043 90.0009 73.0493L90.5512 73.581ZM74.0664 92.9661L74.5981 92.4158C74.261 92.0901 74.2518 91.5528 74.5775 91.2157L74.0272 90.684L73.4768 90.1523C72.5638 91.0973 72.5898 92.6035 73.5347 93.5164L74.0664 92.9661ZM74.0664 92.9661L73.5347 93.5164C74.4797 94.4294 75.9859 94.4035 76.8989 93.4585L76.3486 92.9268L75.7982 92.3951C75.4725 92.7322 74.9352 92.7415 74.5981 92.4158L74.0664 92.9661ZM82.1735 93.9679L82.7238 94.4996L84.9666 92.1782L84.4163 91.6465L83.866 91.1148L81.6231 93.4362L82.1735 93.9679ZM84.4163 91.6465L84.948 91.0962L65.5236 72.3293L64.9919 72.8797L64.4602 73.43L83.8846 92.1969L84.4163 91.6465ZM64.9919 72.8797L64.4416 72.348L62.1988 74.6694L62.7491 75.2011L63.2994 75.7328L65.5422 73.4114L64.9919 72.8797ZM62.7491 75.2011L62.2174 75.7514L81.6418 94.5183L82.1735 93.9679L82.7052 93.4176L63.2808 74.6507L62.7491 75.2011ZM56.308 94.4132L56.8397 93.8629L54.5183 91.6201L53.9866 92.1704L53.4549 92.7208L55.7763 94.9636L56.308 94.4132ZM53.9866 92.1704L54.5369 92.7021L73.3038 73.2777L72.7535 72.746L72.2031 72.2143L53.4363 91.6387L53.9866 92.1704ZM72.7535 72.746L72.2218 73.2964L74.5431 75.5392L75.0748 74.9889L75.6066 74.4385L73.2852 72.1957L72.7535 72.746ZM75.0748 74.9889L74.5245 74.4572L55.7577 93.8815L56.308 94.4132L56.8583 94.9449L75.6252 75.5206L75.0748 74.9889ZM54.6338 76.8971L54.0835 76.3654L37.5594 93.4684L38.1098 94.0001L38.6601 94.5318L55.1842 77.4288L54.6338 76.8971ZM35.7884 91.7573L36.3387 92.289L52.8628 75.186L52.3124 74.6543L51.7621 74.1226L35.238 91.2256L35.7884 91.7573ZM35.8277 94.0394L36.3594 93.4891C36.0223 93.1634 36.013 92.6261 36.3387 92.289L35.7884 91.7573L35.238 91.2256C34.3251 92.1706 34.351 93.6768 35.296 94.5897L35.8277 94.0394ZM38.1098 94.0001L37.5594 93.4684C37.2338 93.8055 36.6965 93.8148 36.3594 93.4891L35.8277 94.0394L35.296 94.5897C36.2409 95.5027 37.7471 95.4768 38.6601 94.5318L38.1098 94.0001ZM54.5945 74.615L54.0628 75.1654C54.3999 75.491 54.4092 76.0283 54.0835 76.3654L54.6338 76.8971L55.1842 77.4288C56.0971 76.4839 56.0712 74.9777 55.1262 74.0647L54.5945 74.615ZM54.5945 74.615L55.1262 74.0647C54.1813 73.1517 52.6751 73.1776 51.7621 74.1226L52.3124 74.6543L52.8628 75.186C53.1884 74.8489 53.7257 74.8397 54.0628 75.1654L54.5945 74.615Z" fill="white"/>
<rect x="28.4368" y="104.029" width="3.22786" height="27.0093" rx="1.61393" transform="rotate(-135.986 28.4368 104.029)" fill="white" stroke="white" stroke-width="1.53045"/>
<rect x="83.6577" y="85.3506" width="3.22786" height="27.0093" rx="1.61393" transform="rotate(-135.986 83.6577 85.3506)" fill="white" stroke="white" stroke-width="1.53045"/>
<circle cx="64.2695" cy="83.7912" r="41.398" stroke="white" stroke-width="4.45223"/>
<path d="M64.2692 0.486969C64.4404 0.486969 65.559 4.98243 66.7545 10.4762C68.8371 20.0466 68.8871 20.4996 67.9518 21.3004C65.4336 23.4568 67.6127 28.6442 71.0368 28.6442C72.9527 28.6442 75.0853 26.5182 75.4469 24.2467C75.695 22.6877 75.3015 21.2693 73.5329 17.3415C70.6863 11.0195 70.5588 8.33451 72.9821 5.77505C74.128 4.56471 74.526 4.34852 74.2438 5.08951C73.6298 6.70099 73.3176 10.6201 73.6862 12.0895C73.8641 12.7984 75.006 14.6394 76.2233 16.1794C79.0496 19.755 79.9713 21.9982 79.9713 25.2985C79.9713 31.2556 73.8797 35.6287 68.4547 33.5661C66.9546 32.9958 66.0866 33.2855 66.0094 34.2741L66.0026 34.2799L65.987 34.4772L66.0026 34.6491V34.7907H62.5973V34.6501C62.5999 34.6254 62.6015 34.6009 62.6032 34.5768L62.6129 34.4772L62.6071 34.4059C62.5833 33.4066 61.6821 32.9716 60.2067 33.5553C54.8093 35.6906 48.5651 31.2619 48.5651 25.2985C48.5651 21.9982 49.4869 19.7549 52.3131 16.1794C53.5304 14.6394 54.6723 12.7984 54.8503 12.0895C55.2188 10.6201 54.9066 6.701 54.2926 5.08951C54.0104 4.34853 54.4083 4.56458 55.5544 5.77505C57.9222 8.27603 57.8666 11.3699 55.36 16.6003C52.9372 21.6558 52.5605 23.7158 53.6667 25.8551C55.1808 28.7832 57.7044 29.4336 60.1344 27.5221C61.9046 26.1293 62.1345 22.7452 60.5622 21.2204C59.5925 20.2799 59.6271 19.9633 61.7604 10.3698C62.9683 4.93804 64.0969 0.492672 64.2692 0.486969Z" fill="white"/>
<path d="M64.2692 0.486969V6.88434e-06H64.2611L64.2531 0.000273317L64.2692 0.486969ZM66.7545 10.4762L67.2304 10.3727V10.3727L66.7545 10.4762ZM67.9518 21.3004L67.6351 20.9305L67.6351 20.9306L67.9518 21.3004ZM71.0368 28.6442L71.0368 29.1312H71.0368V28.6442ZM75.4469 24.2467L75.9278 24.3233L75.9278 24.3233L75.4469 24.2467ZM73.5329 17.3415L73.0888 17.5414L73.0888 17.5414L73.5329 17.3415ZM72.9821 5.77505L72.6285 5.44026L72.6285 5.44026L72.9821 5.77505ZM74.2438 5.08951L74.6989 5.26289L74.6989 5.26284L74.2438 5.08951ZM73.6862 12.0895L73.2139 12.208L73.2139 12.2081L73.6862 12.0895ZM76.2233 16.1794L76.6053 15.8774L76.6053 15.8774L76.2233 16.1794ZM79.9713 25.2985H80.4583V25.2985L79.9713 25.2985ZM68.4547 33.5661L68.6278 33.1109L68.6278 33.1109L68.4547 33.5661ZM66.0094 34.2741L66.3263 34.6438L66.4792 34.5127L66.4949 34.312L66.0094 34.2741ZM66.0026 34.2799L65.6857 33.9102L65.533 34.0411L65.5172 34.2415L66.0026 34.2799ZM65.987 34.4772L65.5015 34.4388L65.4983 34.48L65.502 34.5213L65.987 34.4772ZM66.0026 34.6491H66.4896V34.627L66.4876 34.605L66.0026 34.6491ZM66.0026 34.7907V35.2776H66.4896V34.7907H66.0026ZM62.5973 34.7907H62.1104V35.2776H62.5973V34.7907ZM62.5973 34.6501L62.1131 34.5985L62.1104 34.6242V34.6501H62.5973ZM62.6032 34.5768L62.1184 34.5293L62.1174 34.5427L62.6032 34.5768ZM62.6129 34.4772L63.0976 34.5247L63.1019 34.481L63.0983 34.4373L62.6129 34.4772ZM62.6071 34.4059L62.1203 34.4175L62.1206 34.4317L62.1218 34.4458L62.6071 34.4059ZM60.2067 33.5553L60.3858 34.0081L60.3859 34.0081L60.2067 33.5553ZM48.5651 25.2985L48.0781 25.2985V25.2985H48.5651ZM52.3131 16.1794L51.9311 15.8774L51.9311 15.8774L52.3131 16.1794ZM54.8503 12.0895L55.3226 12.2081L55.3226 12.208L54.8503 12.0895ZM54.2926 5.08951L53.8376 5.26283L53.8376 5.26289L54.2926 5.08951ZM55.5544 5.77505L55.2007 6.10985L55.2007 6.10985L55.5544 5.77505ZM55.36 16.6003L54.9209 16.3898L54.9209 16.3898L55.36 16.6003ZM53.6667 25.8551L53.2341 26.0788L53.2341 26.0788L53.6667 25.8551ZM60.1344 27.5221L60.4355 27.9049L60.4355 27.9048L60.1344 27.5221ZM60.5622 21.2204L60.2231 21.5699L60.2231 21.5699L60.5622 21.2204ZM61.7604 10.3698L61.2851 10.2641V10.2641L61.7604 10.3698ZM64.2692 0.486969V0.973931C64.1376 0.973931 64.0441 0.920809 63.9997 0.889921C63.9537 0.857898 63.9252 0.825385 63.9128 0.810401C63.8986 0.793322 63.8899 0.779804 63.8863 0.773979C63.8841 0.770564 63.8826 0.767999 63.8818 0.766495C63.8814 0.765714 63.881 0.765126 63.8808 0.76475C63.8806 0.764372 63.8805 0.764171 63.8805 0.764159C63.8805 0.764157 63.8808 0.764755 63.8814 0.766033C63.8821 0.767302 63.8829 0.769094 63.884 0.77146C63.8862 0.77626 63.8891 0.782771 63.8927 0.791229C63.8998 0.808334 63.9087 0.830827 63.9192 0.859411C63.9625 0.976684 64.0211 1.16061 64.0941 1.41129C64.239 1.90941 64.4305 2.63578 64.6552 3.539C65.1042 5.34366 65.6817 7.83609 66.2787 10.5798L66.7545 10.4762L67.2304 10.3727C66.6319 7.62257 66.0523 5.12036 65.6003 3.30385C65.3745 2.39648 65.1795 1.65562 65.0292 1.13916C64.9545 0.882552 64.8883 0.672348 64.833 0.522316C64.8062 0.449804 64.7763 0.375641 64.7439 0.313434C64.7289 0.284684 64.7024 0.236962 64.6632 0.189665C64.6437 0.166007 64.6084 0.126961 64.5561 0.0905754C64.5055 0.055324 64.4061 6.88434e-06 64.2692 6.88434e-06V0.486969ZM66.7545 10.4762L66.2787 10.5798C67.3234 15.3804 67.8485 17.853 68.0009 19.2304C68.0773 19.9217 68.0503 20.2687 67.987 20.4731C67.9338 20.6449 67.8467 20.7494 67.6351 20.9305L67.9518 21.3004L68.2685 21.6703C68.5246 21.4511 68.7819 21.1986 68.9174 20.7611C69.0427 20.3563 69.0484 19.8418 68.9689 19.1234C68.8094 17.6815 68.2683 15.1425 67.2304 10.3727L66.7545 10.4762ZM67.9518 21.3004L67.6351 20.9306C66.1527 22.1999 66.1141 24.2964 66.817 25.9695C67.5217 27.647 69.0628 29.1312 71.0368 29.1312L71.0368 28.6442L71.0368 28.1572C69.5867 28.1572 68.3262 27.0477 67.7149 25.5923C67.1017 24.1327 67.2327 22.5573 68.2685 21.6703L67.9518 21.3004ZM71.0368 28.6442V29.1312C72.1669 29.1312 73.2955 28.5126 74.1685 27.6421C75.0474 26.7658 75.7284 25.5761 75.9278 24.3233L75.4469 24.2467L74.966 24.1702C74.8038 25.1889 74.2377 26.1979 73.4809 26.9524C72.7182 27.7128 71.8225 28.1572 71.0368 28.1572V28.6442ZM75.4469 24.2467L75.9278 24.3233C76.2021 22.5998 75.7375 21.0515 73.9769 17.1415L73.5329 17.3415L73.0888 17.5414C74.8655 21.4871 75.1879 22.7757 74.966 24.1702L75.4469 24.2467ZM73.5329 17.3415L73.9769 17.1415C72.5556 13.9849 71.8477 11.8061 71.7677 10.1242C71.6901 8.49258 72.2025 7.30675 73.3357 6.10985L72.9821 5.77505L72.6285 5.44026C71.3384 6.80281 70.703 8.23921 70.7949 10.1705C70.8844 12.0513 71.6636 14.376 73.0888 17.5414L73.5329 17.3415ZM72.9821 5.77505L73.3357 6.10985C73.6185 5.81113 73.8498 5.57951 74.0324 5.41116C74.2243 5.2343 74.3347 5.15358 74.381 5.12842C74.4173 5.10867 74.3523 5.15615 74.2342 5.14724C74.1577 5.14148 74.0597 5.11142 73.9753 5.03288C73.8955 4.95865 73.8648 4.87532 73.8532 4.82694C73.8344 4.74788 73.8523 4.70554 73.8422 4.75116C73.8354 4.78167 73.8197 4.83491 73.7887 4.91618L74.2438 5.08951L74.6989 5.26284C74.7385 5.15886 74.772 5.05676 74.793 4.96199C74.8107 4.88233 74.8349 4.74477 74.8005 4.60069C74.7812 4.5198 74.7372 4.41151 74.6388 4.31989C74.5357 4.22395 74.4135 4.18407 74.3074 4.17607C74.1299 4.16269 73.9834 4.23604 73.916 4.27264C73.7549 4.3602 73.5686 4.51416 73.3723 4.69509C73.1668 4.88453 72.9186 5.13381 72.6285 5.44026L72.9821 5.77505ZM74.2438 5.08951L73.7888 4.91613C73.4563 5.78858 73.2208 7.22763 73.1111 8.60412C73.002 9.9739 73.0087 11.3901 73.2139 12.208L73.6862 12.0895L74.1585 11.971C73.9951 11.3195 73.9736 10.0415 74.082 8.68146C74.1898 7.32817 74.4173 6.00192 74.6989 5.26289L74.2438 5.08951ZM73.6862 12.0895L73.2139 12.2081C73.3238 12.6462 73.6949 13.344 74.1512 14.0795C74.6208 14.8366 75.2212 15.6969 75.8413 16.4813L76.2233 16.1794L76.6053 15.8774C76.0081 15.1218 75.4289 14.2917 74.9788 13.5661C74.5153 12.8189 74.2265 12.2417 74.1585 11.971L73.6862 12.0895ZM76.2233 16.1794L75.8413 16.4813C77.2422 18.2536 78.1479 19.6674 78.7068 21.0273C79.262 22.3783 79.4844 23.6994 79.4844 25.2985L79.9713 25.2985L80.4583 25.2985C80.4583 23.5973 80.2198 22.1466 79.6076 20.6571C78.999 19.1764 78.0307 17.6807 76.6053 15.8774L76.2233 16.1794ZM79.9713 25.2985H79.4844C79.4844 30.9364 73.714 35.0447 68.6278 33.1109L68.4547 33.5661L68.2817 34.0212C74.0454 36.2126 80.4583 31.5748 80.4583 25.2985H79.9713ZM68.4547 33.5661L68.6278 33.1109C67.8442 32.813 67.1272 32.6978 66.5581 32.8692C66.2609 32.9587 66.0054 33.1267 65.8208 33.3777C65.6392 33.6246 65.5485 33.9213 65.5239 34.2362L66.0094 34.2741L66.4949 34.312C66.5089 34.1326 66.5557 34.0223 66.6054 33.9547C66.6522 33.8911 66.7219 33.837 66.8389 33.8018C67.0981 33.7237 67.5652 33.7489 68.2817 34.0213L68.4547 33.5661ZM66.0094 34.2741L65.6925 33.9044L65.6857 33.9102L66.0026 34.2799L66.3195 34.6497L66.3263 34.6438L66.0094 34.2741ZM66.0026 34.2799L65.5172 34.2415L65.5015 34.4388L65.987 34.4772L66.4724 34.5157L66.488 34.3184L66.0026 34.2799ZM65.987 34.4772L65.502 34.5213L65.5176 34.6932L66.0026 34.6491L66.4876 34.605L66.4719 34.4331L65.987 34.4772ZM66.0026 34.6491H65.5156V34.7907H66.0026H66.4896V34.6491H66.0026ZM66.0026 34.7907V34.3037H62.5973V34.7907V35.2776H66.0026V34.7907ZM62.5973 34.7907H63.0843V34.6501H62.5973H62.1104V34.7907H62.5973ZM62.5973 34.6501L63.0816 34.7016C63.0854 34.6658 63.0876 34.63 63.0889 34.6109L62.6032 34.5768L62.1174 34.5427C62.1154 34.5719 62.1145 34.5849 62.1131 34.5985L62.5973 34.6501ZM62.6032 34.5768L63.0878 34.6243L63.0976 34.5247L62.6129 34.4772L62.1283 34.4297L62.1185 34.5293L62.6032 34.5768ZM62.6129 34.4772L63.0983 34.4373L63.0924 34.366L62.6071 34.4059L62.1218 34.4458L62.1276 34.5171L62.6129 34.4772ZM62.6071 34.4059L63.0939 34.3943C63.0781 33.7299 62.7517 33.176 62.128 32.9332C61.5516 32.7088 60.8185 32.7896 60.0275 33.1025L60.2067 33.5553L60.3859 34.0081C61.0703 33.7373 61.5255 33.7438 61.7746 33.8407C61.9763 33.9193 62.1123 34.0826 62.1203 34.4175L62.6071 34.4059ZM60.2067 33.5553L60.0276 33.1025C54.971 35.103 49.0521 30.9413 49.0521 25.2985H48.5651H48.0781C48.0781 31.5825 54.6476 36.2783 60.3858 34.0081L60.2067 33.5553ZM48.5651 25.2985L49.0521 25.2985C49.0521 23.6994 49.2744 22.3783 49.8297 21.0273C50.3886 19.6674 51.2943 18.2536 52.6952 16.4813L52.3131 16.1794L51.9311 15.8774C50.5057 17.6807 49.5374 19.1763 48.9289 20.6571C48.3167 22.1466 48.0781 23.5973 48.0781 25.2985L48.5651 25.2985ZM52.3131 16.1794L52.6952 16.4813C53.3152 15.6969 53.9156 14.8366 54.3853 14.0795C54.8415 13.344 55.2126 12.6462 55.3226 12.2081L54.8503 12.0895L54.3779 11.971C54.31 12.2417 54.0211 12.8189 53.5576 13.5661C53.1075 14.2917 52.5283 15.1218 51.9311 15.8774L52.3131 16.1794ZM54.8503 12.0895L55.3226 12.208C55.5277 11.3901 55.5344 9.97391 55.4253 8.60414C55.3157 7.22764 55.0801 5.78859 54.7477 4.91613L54.2926 5.08951L53.8376 5.26289C54.1192 6.00193 54.3467 7.32818 54.4545 8.68147C54.5628 10.0415 54.5413 11.3195 54.3779 11.971L54.8503 12.0895ZM54.2926 5.08951L54.7477 4.91619C54.7168 4.83492 54.701 4.78167 54.6942 4.75116C54.6841 4.70553 54.7021 4.74784 54.6832 4.82686C54.6717 4.87521 54.641 4.95852 54.5612 5.03277C54.4768 5.11133 54.3788 5.14142 54.3024 5.1472C54.1842 5.15614 54.1191 5.10863 54.1554 5.12838C54.2017 5.15353 54.3121 5.23424 54.504 5.4111C54.6866 5.57945 54.9179 5.81109 55.2007 6.10985L55.5544 5.77505L55.908 5.44026C55.6178 5.13378 55.3696 4.88448 55.1641 4.69504C54.9678 4.5141 54.7815 4.36014 54.6204 4.27259C54.553 4.23599 54.4065 4.16263 54.2289 4.17605C54.1228 4.18407 54.0006 4.224 53.8976 4.31996C53.7991 4.4116 53.7552 4.51988 53.7359 4.60074C53.7015 4.7448 53.7257 4.88234 53.7434 4.962C53.7644 5.05676 53.798 5.15886 53.8376 5.26283L54.2926 5.08951ZM55.5544 5.77505L55.2007 6.10985C56.3016 7.2726 56.8271 8.54965 56.7982 10.1554C56.7689 11.791 56.1636 13.7966 54.9209 16.3898L55.36 16.6003L55.7992 16.8107C57.063 14.1735 57.7389 12.0171 57.772 10.1729C57.8056 8.29885 57.175 6.77848 55.908 5.44026L55.5544 5.77505ZM55.36 16.6003L54.9209 16.3898C53.7082 18.9203 52.9824 20.75 52.711 22.2336C52.4335 23.7504 52.6298 24.9101 53.2341 26.0788L53.6667 25.8551L54.0992 25.6315C53.5973 24.6608 53.429 23.7208 53.669 22.4089C53.9151 21.0639 54.589 19.3358 55.7992 16.8107L55.36 16.6003ZM53.6667 25.8551L53.2341 26.0788C54.0323 27.6223 55.1362 28.6401 56.4356 28.975C57.7435 29.3121 59.1348 28.928 60.4355 27.9049L60.1344 27.5221L59.8334 27.1394C58.7041 28.0277 57.6186 28.2742 56.6786 28.0319C55.7302 27.7875 54.8152 27.0161 54.0992 25.6315L53.6667 25.8551ZM60.1344 27.5221L60.4355 27.9048C61.4584 27.1 61.9989 25.7593 62.0876 24.4537C62.1761 23.15 61.8213 21.7632 60.9012 20.8708L60.5622 21.2204L60.2231 21.5699C60.8753 22.2024 61.1918 23.27 61.1159 24.3878C61.0401 25.5036 60.5806 26.5514 59.8333 27.1394L60.1344 27.5221ZM60.5622 21.2204L60.9012 20.8708C60.6677 20.6444 60.5649 20.5189 60.5041 20.3289C60.4365 20.1176 60.4065 19.774 60.4817 19.0934C60.632 17.7313 61.1653 15.2891 62.2358 10.4755L61.7604 10.3698L61.2851 10.2641C60.2221 15.0439 59.6715 17.5568 59.5136 18.9865C59.4347 19.7019 59.4446 20.2134 59.5765 20.6257C59.7153 21.0593 59.9718 21.3262 60.2231 21.5699L60.5622 21.2204ZM61.7604 10.3698L62.2358 10.4755C62.839 7.76285 63.422 5.29849 63.8751 3.51343C64.1019 2.62001 64.2951 1.90133 64.4412 1.4081C64.5148 1.15989 64.5739 0.977661 64.6175 0.861291C64.6402 0.80069 64.6532 0.772895 64.6567 0.766297C64.6596 0.760822 64.6496 0.781668 64.6256 0.81061C64.6136 0.825137 64.5863 0.856261 64.5426 0.887363C64.5009 0.917026 64.412 0.969473 64.2853 0.973665L64.2692 0.486969L64.2531 0.000273317C64.121 0.0046429 64.0263 0.0594366 63.9783 0.0935862C63.9282 0.129176 63.8941 0.166929 63.8749 0.1902C63.8365 0.23663 63.8103 0.283425 63.7951 0.312148C63.7625 0.373947 63.7325 0.447546 63.7054 0.519654C63.6496 0.668698 63.5828 0.877139 63.5075 1.13135C63.3558 1.64298 63.159 2.37619 62.9311 3.27379C62.475 5.07077 61.8897 7.54497 61.2851 10.2641L61.7604 10.3698Z" fill="white"/>
<rect x="62.5956" y="34.6912" width="3.40969" height="2.25682" fill="white" stroke="white" stroke-width="0.973924"/>
</svg>
