<svg width="148" height="228" viewBox="0 0 148 228" fill="none" xmlns="http://www.w3.org/2000/svg">
<path d="M108.792 164.617C107.314 163.391 105.481 162.906 103.777 162.163C101.777 161.291 99.815 160.315 97.82 159.426C95.148 158.236 92.575 157.565 89.769 158.726C86.19 160.207 82.807 162.489 79.918 165.102C77.631 167.171 75.672 169.572 73.723 171.963C70.983 175.324 68.044 178.432 65.947 182.221C63.766 186.161 61.898 190.25 60.148 194.396C57.811 199.933 55.451 205.457 53.437 211.123C51.7 216.01 50.058 221.545 49.813 226.741C50.654 226.748 59.558 227.276 59.639 226.63C60.981 216.462 65.08 206.591 69.496 197.429C71.772 192.707 74.365 188.145 77.111 183.683C78.55 181.346 80.035 179.038 81.544 176.746C82.628 175.099 84.151 171.476 85.787 170.42C77.913 175.502 72.973 183.967 68.534 192.221C65.587 197.7 62.732 203.229 59.968 208.803C61.648 201.504 64.18 194.479 67.711 187.875C70.727 182.234 72.845 175.848 76.561 170.627C79.031 167.157 82.478 164.206 86.61 163.173C88.292 162.752 90.038 162.658 91.772 162.644C97.536 162.411 103.141 163.714 108.792 164.617Z" fill="#375416"/>
<path d="M86.6131 163.173C82.4811 164.206 79.0341 167.157 76.5641 170.627C76.0741 171.315 75.6141 172.024 75.1741 172.748C72.5631 174.941 70.3921 177.632 68.2491 180.296C66.9981 181.851 65.7471 183.406 64.4961 184.961C64.9661 184.041 65.4471 183.126 65.9481 182.221C68.0451 178.433 70.9841 175.324 73.7241 171.963C75.6731 169.572 77.6321 167.171 79.9191 165.102C81.0731 164.058 82.3091 163.071 83.6021 162.162C84.6111 161.753 85.6191 161.382 86.6211 161.104C90.4051 160.053 94.5651 161.196 98.2751 161.999C100.463 162.508 102.63 163.112 104.827 163.579C105.61 163.746 106.989 163.867 108.223 164.19C108.418 164.322 108.608 164.463 108.792 164.616C103.141 163.714 97.5351 162.41 91.7741 162.643C90.0411 162.658 88.2951 162.752 86.6131 163.173Z" fill="#587F03"/>
<path d="M65.9031 182.355C67.8621 180.222 69.8501 178.134 71.8221 176.078C69.3091 174.047 65.9821 173.721 62.9011 174.576C61.9901 172.56 60.9261 170.541 59.2451 169.229C56.1741 166.832 54.1771 168.869 51.3081 170.044C45.4331 172.451 45.2131 177.316 43.7641 183.346C43.5801 184.111 43.3991 184.876 43.2211 185.642C43.2211 187.144 42.4571 189.002 42.1461 190.477C41.7911 192.159 41.4571 193.845 41.1511 195.538C40.5531 198.839 40.0591 202.163 39.7211 205.507C39.0531 212.121 39.2121 218.722 39.1111 225.361C40.3671 225.501 41.6391 225.465 42.8861 225.254C43.1111 225.216 43.3531 225.162 43.5051 224.979C43.6231 224.837 43.6651 224.642 43.7031 224.456C44.1941 222.068 44.4881 219.702 44.9991 217.329C46.2751 211.398 48.6831 205.823 51.7141 200.707C53.2511 198.113 54.9461 195.63 56.7411 193.236C57.2341 192.578 62.4711 186.581 62.3401 186.34C64.5851 190.455 66.9071 194.522 69.3071 198.534C68.7491 193.024 67.6011 187.586 65.9031 182.355ZM50.3651 187.173C48.9641 189.731 47.6561 192.347 46.4431 195.015C45.8371 196.349 45.2551 197.695 44.6971 199.053C44.4181 199.732 44.1451 200.414 43.8791 201.099C43.6961 201.571 43.2641 202.084 43.1991 202.595C43.4711 200.117 43.7931 197.612 44.3621 195.201C44.9371 192.769 45.1351 190.323 45.9871 187.954C48.1271 182.007 49.5381 175.838 55.4151 172.991C56.1451 174.475 56.8891 175.951 57.6391 177.423C54.5941 179.976 52.3431 183.562 50.3651 187.173Z" fill="#587F03"/>
<path opacity="0.8" d="M65.287 176.817C65.037 176.855 64.79 176.912 64.545 176.98C64.322 177.042 64.102 177.113 63.882 177.186C60.284 178.387 57.193 180.893 54.99 184.195C49.674 192.168 46.04 200.487 42.615 209.488C42.72 209.213 42.589 208.595 42.592 208.287C42.595 207.849 42.612 207.411 42.64 206.973C42.69 206.187 42.73 205.392 42.802 204.608C42.89 203.665 43.066 202.736 43.289 201.82C43.544 199.595 43.852 197.36 44.362 195.201C44.937 192.769 45.135 190.323 45.987 187.954C46.264 187.184 46.529 186.41 46.793 185.64C45.397 187.931 44.78 190.714 44.208 193.41C43.632 196.122 42.663 198.727 42.082 201.475C41.519 204.137 41.156 206.866 40.856 209.6C40.77 214.881 40.446 220.154 40.259 225.433C41.137 225.456 42.018 225.4 42.886 225.252C43.111 225.214 43.353 225.16 43.505 224.977C43.623 224.835 43.665 224.64 43.704 224.454C44.195 222.066 44.489 219.7 45 217.327C46.276 211.396 48.684 205.821 51.715 200.705C53.252 198.111 54.947 195.628 56.742 193.234C57.235 192.576 62.472 186.579 62.34 186.338C62.365 186.383 63.32 185.132 63.923 184.561C64.556 183.808 65.235 183.096 65.917 182.394C65.913 182.381 68.552 179.512 69.883 178.114C68.759 177.067 67.246 176.519 65.287 176.817Z" fill="#565E08"/>
<path d="M65.3321 174.122C61.3971 174.306 58.5281 176.244 55.7791 179.167C56.1611 178.761 56.9971 178.49 57.4791 178.219C58.0801 177.881 58.6851 177.548 59.3171 177.281C60.4811 176.789 61.8801 176.41 63.1211 176.737C64.4421 177.085 65.6351 178.396 66.5401 179.415C75.4251 189.411 82.3021 201.242 89.1141 212.981C88.9541 209.212 87.2851 206.117 85.9221 202.759C84.4381 199.101 83.1431 195.337 81.7531 191.636C78.8881 184.01 74.3471 173.701 65.3321 174.122Z" fill="#75A000"/>
<path d="M78.3281 194.463C74.9501 187.402 67.3871 173.121 60.8571 175.235C59.0031 176.118 57.3701 177.476 55.7791 179.168C56.1611 178.762 56.9971 178.491 57.4791 178.22C58.0801 177.882 58.6851 177.549 59.3171 177.282C60.4811 176.79 61.8801 176.411 63.1211 176.738C64.4431 177.086 65.6351 178.397 66.5401 179.416C71.4681 184.961 75.7771 191.071 79.8021 197.416C79.2941 196.441 78.8031 195.456 78.3281 194.463Z" fill="#A5C62C"/>
<path d="M95.4541 44.726C95.4541 44.726 83.1801 60.399 72.2221 81.068C50.2441 122.523 42.4661 153.52 42.4661 153.52L44.7511 153.511C44.7511 153.511 54.5421 119.348 72.9141 83.745C83.0191 64.162 98.8501 43.313 98.6771 43.62L95.4541 44.726Z" fill="#AE6D11"/>
<path d="M66.3361 95.066C78.9821 68.568 88.7251 56.615 97.2321 44.114L98.6771 43.621C98.8511 43.314 83.0191 64.164 72.9141 83.746C54.5421 119.348 44.7511 153.512 44.7511 153.512L42.4661 153.521C42.4661 153.521 44.0901 147.064 47.9311 136.126C53.2661 125.351 60.0001 108.341 66.3361 95.066Z" fill="#8F5311"/>
<path d="M109.846 41.031C111.048 41.678 112.502 41.506 113.859 41.648C115.216 41.79 116.759 42.532 116.899 43.89C112.806 42.964 108.57 42.491 104.402 42.986C102.6 43.2 100.379 43.825 98.8052 44.723C97.2612 45.603 96.1392 47.65 94.2142 47.761C93.2822 47.814 96.2922 43.132 96.5092 42.828C98.0442 40.673 99.5472 38.5 101.126 36.376C104.377 32.003 107.762 27.732 111.079 23.409C116.188 16.75 121.945 10.574 128.871 5.772C134.75 1.696 140.609 0.059 147.752 0C147.818 0.618 147.114 1.00099 146.528 1.20999C143.57 2.26299 140.612 3.316 137.654 4.369C136.283 4.857 134.985 5.55401 134.136 6.79601C136.33 7.00301 138.524 7.209 140.717 7.416C142.256 7.561 144.095 7.921 144.651 9.364C142.587 9.424 140.564 8.852 138.524 8.53C136.484 8.208 134.279 8.165 132.484 9.186C132.326 9.276 132.15 9.436 132.218 9.605C132.255 9.697 132.354 9.746 132.446 9.784C133.946 10.406 135.651 10.192 137.249 10.484C137.942 10.611 138.784 11.122 138.569 11.793C138.4 12.32 137.702 12.434 137.154 12.358C136.606 12.282 136 12.124 135.535 12.423C135.42 12.577 135.409 12.8 135.507 12.965C136.171 12.954 136.859 12.947 137.466 13.215C138.074 13.483 138.578 14.106 138.486 14.764C134.737 14.575 131.06 14.552 127.427 15.728C125.634 16.308 122.445 16.525 121.429 18.368C124.991 18.537 128.52 17.764 132.057 17.311C135.387 16.885 138.404 16.728 141.365 18.676C141.6 18.831 141.86 19.095 141.741 19.351C141.425 20.029 134.009 19.043 132.978 19.071C129.515 19.165 126.078 19.659 122.654 20.154C121.733 20.287 120.535 20.799 120.73 21.709C123.574 21.846 126.418 21.984 129.261 22.121C132.389 22.272 135.93 22.628 137.842 25.108C135.19 24.823 132.539 24.537 129.888 24.252C132.174 24.578 134.402 25.308 136.437 26.398C136.775 26.579 137.159 26.874 137.082 27.25C136.989 27.703 136.363 27.747 135.908 27.668C132.664 27.108 129.556 25.857 126.286 25.472C123.016 25.088 119.331 25.776 117.288 28.357C119.213 28.664 121.042 27.542 122.934 27.073C125.065 26.545 127.304 26.852 129.477 27.162C130.182 27.262 131.024 27.474 131.234 28.154C128.512 28.603 125.791 29.051 123.069 29.499C124.336 29.522 125.602 29.546 126.869 29.569C127.228 29.576 127.68 29.652 127.767 30C127.882 30.459 127.254 30.709 126.784 30.761C124.413 31.023 122.062 31.467 119.758 32.089C118.962 32.304 118.095 32.598 117.688 33.315C119.188 33.798 120.739 32.897 122.275 32.547C123.237 32.328 124.248 32.327 125.211 32.546C125.563 32.626 125.971 32.805 126.014 33.163C126.065 33.592 125.566 33.856 125.154 33.984C120.411 35.46 115.514 35.28 110.893 37.269C110.55 37.417 110.154 37.652 110.16 38.026C112.772 38.538 115.444 38.625 118.065 38.893C119.495 39.039 121.599 39.086 122.901 39.786C123.398 40.053 123.744 40.69 123.495 41.196C123.232 41.729 117.813 40.834 117.313 40.775C114.824 40.482 112.275 40.252 109.846 41.031Z" fill="#D5A031"/>
<path opacity="0.4" d="M101.125 36.374C104.376 32.001 107.761 27.73 111.078 23.407C116.188 16.748 121.944 10.572 128.87 5.771C132.58 3.199 136.319 1.686 140.34 0.841003C138.653 1.699 136.695 2.353 135.216 3.157C132.822 4.458 130.211 5.79399 128.241 7.73599C128.005 7.96899 127.778 8.209 127.562 8.461C127.178 8.907 126.807 9.429 126.816 10.017C127.832 10.27 128.804 9.57499 129.74 9.10699C131.932 8.00899 134.624 7.802 137.032 8.034C139.097 8.232 141.241 8.809 143.301 8.828C143.504 8.831 143.668 8.678 143.871 8.649C144.137 8.885 144.515 9.01 144.651 9.362C142.587 9.421 140.564 8.85 138.524 8.528C136.484 8.206 134.279 8.16201 132.484 9.18401C132.375 9.24601 132.339 9.364 132.3 9.474C132.269 9.481 132.235 9.47499 132.204 9.48399C130.578 9.92099 128.85 10.285 127.419 11.211C129.317 11.194 131.215 11.247 133.108 11.37C130.63 11.732 128.117 12.104 125.827 13.118C127.724 12.714 129.65 12.445 131.585 12.314C129.545 12.628 127.554 13.251 125.699 14.156C125.354 14.325 124.965 14.574 125.025 15.167C125.112 15.263 125.261 15.256 125.389 15.237C126.917 15.01 128.756 15.033 130.171 14.415C130.719 14.175 131.234 13.846 131.816 13.708C132.5 13.545 133.215 13.659 133.914 13.74C135.257 13.895 136.605 13.704 137.954 13.609C138.291 13.924 138.548 14.311 138.485 14.761C134.737 14.572 131.059 14.548 127.426 15.725C125.633 16.305 122.444 16.522 121.429 18.364C122.053 18.395 122.673 18.282 123.295 18.26C122.838 18.466 122.422 18.726 122.29 19.116C124.558 19.068 126.848 19.018 129.048 18.468C129.704 18.304 130.352 18.096 131.025 18.032C131.643 17.975 132.266 18.041 132.883 18.107C135.821 18.423 138.759 18.739 141.697 19.054C141.743 19.149 141.787 19.247 141.74 19.347C141.424 20.025 134.008 19.039 132.977 19.067C129.514 19.161 126.077 19.655 122.653 20.15C121.751 20.28 120.6 20.78 120.737 21.655C119.292 21.871 117.845 22.122 116.514 22.715C115.889 22.993 115.304 23.394 114.705 23.729C118.81 23.275 122.934 23.003 127.063 22.913C123.782 22.951 120.542 23.605 117.326 24.255C116.604 24.4 115.872 24.55 115.216 24.884C114.56 25.217 113.978 25.766 113.771 26.472C113.73 26.612 113.713 26.784 114.022 26.964C115.259 27.222 116.591 26.984 117.663 26.317C118.916 25.536 120.251 25.002 121.712 24.704C124.176 24.2 126.662 24.798 129.036 25.451C131.496 26.128 133.892 26.71 136.422 27.033C136.616 27.058 136.805 26.994 137.002 27.008C137.029 27.089 137.1 27.157 137.081 27.247C136.989 27.699 136.362 27.743 135.907 27.665C132.663 27.105 129.555 25.855 126.285 25.469C123.015 25.085 119.33 25.774 117.287 28.355C117.308 28.357 117.327 28.35 117.347 28.354C117.187 28.406 117.033 28.472 116.875 28.528C114.837 29.253 112.959 30.426 111.414 31.939C113.687 30.892 116.302 30.907 118.688 30.151C121.036 29.407 123.15 27.921 125.587 27.564C126.358 27.45 127.14 27.454 127.92 27.459C128.856 27.464 129.835 27.493 130.76 27.663C130.949 27.8 131.162 27.918 131.234 28.152C128.513 28.6 125.791 29.048 123.069 29.497C123.289 29.501 123.509 29.504 123.73 29.509C122.193 29.69 120.687 30.246 119.257 30.729C117.516 31.315 115.522 31.25 113.884 32.085C113.562 32.248 113.236 32.478 113.134 32.824C113.173 32.691 117.946 32.176 118.496 31.998C119.775 31.586 121.011 31.01 122.334 30.742C124.11 30.382 125.932 30.293 127.733 29.963C127.74 29.979 127.765 29.981 127.77 29.999C127.885 30.458 127.257 30.708 126.786 30.761C124.415 31.022 122.064 31.466 119.761 32.089C119.117 32.262 118.487 32.549 118.031 33.009C117.362 33.109 116.694 33.211 116.025 33.311C114.642 33.521 113.061 33.863 112.407 35.1C114.153 34.941 115.899 34.782 117.645 34.623C118.23 34.57 118.814 34.516 119.398 34.463C120.15 34.395 120.904 34.326 121.651 34.213C123.116 33.992 124.552 33.587 125.928 33.035C125.951 33.083 126.01 33.107 126.017 33.164C126.068 33.593 125.569 33.855 125.156 33.984C120.413 35.461 115.516 35.28 110.895 37.269C110.652 37.374 110.435 37.545 110.301 37.755C109.049 38.013 107.816 38.347 106.547 38.68C104.838 39.127 103.26 39.19 101.746 40.224C101.58 40.337 101.428 40.615 101.612 40.694C103.424 40.179 105.155 40.145 107.01 40.469C108.865 40.792 110.693 40.153 112.55 39.961C114.408 39.768 116.292 39.835 118.131 40.156C119.332 40.366 120.521 40.686 121.74 40.73C122.323 40.751 122.918 40.688 123.484 40.541C123.553 40.759 123.601 40.988 123.498 41.198C123.235 41.731 117.816 40.836 117.316 40.777C115.171 40.525 112.993 40.44 110.874 40.888C110.842 40.887 110.813 40.879 110.781 40.879C108.244 40.828 105.621 41.04 103.175 41.679C102.651 41.816 102.036 42.044 101.927 42.574C102.661 42.817 103.482 42.79 104.198 42.499C105.67 41.901 106.667 42.075 108.252 42.181C109.79 42.282 111.327 42.409 112.861 42.559C113.964 42.667 115.417 42.588 116.457 42.976C116.498 42.991 116.538 43.022 116.579 43.04C116.748 43.291 116.87 43.574 116.904 43.895C112.811 42.969 108.575 42.497 104.407 42.99C102.605 43.204 100.384 43.829 98.81 44.727C97.266 45.608 96.1441 47.654 94.2191 47.764C93.2871 47.817 96.2971 43.135 96.5141 42.83C98.0431 40.671 99.5461 38.499 101.125 36.374Z" fill="#B26508"/>
<path opacity="0.4" d="M96.5081 42.826C98.0431 40.671 99.5461 38.499 101.125 36.375C104.376 32.002 107.761 27.731 111.078 23.408C114.929 18.389 119.152 13.647 123.962 9.55902C123.55 10.137 123.126 10.713 122.745 11.299C122.408 11.816 122.059 12.393 122.137 13.005C123.539 12.012 125.15 11.315 126.833 10.972C124.744 12.304 122.687 13.686 120.661 15.115C122.186 13.982 123.921 13.133 125.751 12.624C123.419 14.095 121.206 15.757 119.141 17.586C120.88 16.912 123.2 16.211 125.271 16.279C124.115 16.558 122.986 16.952 122.171 17.625C119.713 18.281 117.317 19.148 115.216 20.435C117.416 20.28 119.625 20.287 121.828 20.374C121.515 20.492 121.252 20.662 121.046 20.866C119.229 21.23 117.28 20.979 115.595 21.706C113.206 22.734 111.907 24.815 110.307 26.77C111.376 26.271 112.444 25.772 113.513 25.274C111.283 26.748 109.285 28.573 107.615 30.661C109.661 29.775 111.566 28.972 113.71 28.426C115.413 27.993 117.103 27.508 118.794 27.028C118.432 27.279 118.111 27.586 117.801 27.904C117.21 28.253 116.626 28.617 115.982 28.842C115.226 29.104 114.427 29.215 113.652 29.416C110.88 30.137 106.603 32.185 104.905 34.519C107.129 33.467 109.558 32.85 112.014 32.709C108.61 33.528 105.449 35.336 103.016 37.854C104.524 36.293 107.772 36.235 109.713 36.147C111.13 36.081 112.54 36.177 113.952 36.27C112.923 36.537 111.899 36.834 110.892 37.268C110.863 37.282 110.837 37.304 110.806 37.319C108.618 37.395 106.445 37.514 104.455 38.368C101.43 39.664 98.6711 42.415 96.6691 44.975C97.4671 44.689 98.3221 44.644 99.1671 44.573C99.0561 44.631 98.9091 44.665 98.8041 44.724C97.2601 45.605 96.1381 47.651 94.2131 47.761C93.2821 47.813 96.2911 43.13 96.5081 42.826Z" fill="#84440C"/>
<path d="M144.122 1.099C143.253 1.146 141.829 2.14299 140.967 2.45799C139.725 2.91199 138.503 3.432 137.335 4.054C134.94 5.33 132.594 6.73801 129.98 7.57401C132.047 5.51401 134.414 4.665 136.932 3.314C139.19 2.102 141.525 1.24 144.122 1.099Z" fill="#D7BE47"/>
<path d="M137.762 11.391C136.957 11.441 136.144 11.49 135.337 11.399C133.601 11.202 131.857 10.883 130.109 10.675C130.547 10.314 131.288 10.315 131.945 10.342C133.006 10.384 134.026 10.434 135.073 10.616C135.927 10.764 136.97 11.315 137.762 11.391Z" fill="#D7BE47"/>
<path d="M135.081 12.749C133.695 12.743 131.918 13.451 130.489 13.633C129.216 13.795 127.989 14.077 126.737 14.323C129.137 12.969 132.393 12.738 135.081 12.749Z" fill="#D7BE47"/>
<path d="M126.684 22.798C125.642 22.626 124.537 22.564 123.602 22.532C125.376 22.593 127.15 22.655 128.924 22.717C131.429 22.804 133.587 22.609 135.642 24.416C135.159 23.991 132.662 23.912 131.939 23.815C130.554 23.629 129.116 23.67 127.752 23.974C129.344 25.025 131.392 25.201 132.984 26.252C131.355 26.046 129.856 25.294 128.345 24.65C125.51 23.728 122.361 24.293 119.538 24.882C118.227 25.156 116.913 25.43 115.635 25.832C118.578 24.908 121.298 23.272 124.48 23.444C125.276 23.487 127.777 23.891 128.387 23.224C127.87 23.034 127.288 22.897 126.684 22.798Z" fill="#D7BE47"/>
<path d="M125.331 27.02C124.269 27.506 123.2 27.995 122.069 28.284C121.518 28.425 120.954 28.518 120.412 28.69C119.234 29.064 118.099 29.578 116.929 29.966C115.899 30.308 114.799 30.416 113.768 30.809C114.851 29.463 116.691 29.047 118.387 28.716C119.636 28.472 120.623 28.238 121.786 27.736C122.895 27.257 124.103 26.813 125.331 27.02Z" fill="#D7BE47"/>
<path d="M114.875 34.158C116.451 33.644 118.22 34.251 119.807 33.772C120.522 33.556 121.116 33.287 121.839 33.173C122.06 33.138 124.112 33.062 124.134 32.994C124.041 33.291 123.681 33.395 123.375 33.453C121.863 33.741 120.565 34.329 118.986 34.387C117.614 34.438 116.239 34.309 114.875 34.158Z" fill="#D7BE47"/>
<path d="M140.092 18.686C139.651 18.452 138.918 18.438 138.427 18.355C137.849 18.257 137.27 18.172 136.691 18.082C135.59 17.91 134.46 17.842 133.347 17.744C133.674 17.618 134.027 17.584 134.376 17.552C135.162 17.478 136.021 17.297 136.811 17.384C137.395 17.449 137.988 17.536 138.538 17.77C139.091 18.004 139.549 18.417 140.092 18.686Z" fill="#D7BE47"/>
<path d="M58.2562 116.214C58.0942 116 57.9302 115.787 57.7702 115.572C57.6222 115.332 57.4492 115.1 57.2632 114.888C57.0282 114.571 56.7902 114.257 56.5522 113.943C57.5862 110.795 62.6412 99.796 63.8582 97.139C65.8362 92.821 68.5702 87.118 70.2522 84.574C71.2812 83.018 73.7222 82.23 75.4152 81.17C78.2372 79.397 80.9912 77.371 83.9832 75.891C85.4592 75.161 85.9742 75.022 87.5422 75.495C90.1882 76.293 93.0082 76.919 95.1332 78.771C97.1562 80.534 98.5682 82.889 100.076 85.077C105.113 92.387 111.761 98.492 116.642 105.907C114.001 104.299 111.514 102.454 109.032 100.611C106.69 98.873 104.348 97.134 102.006 95.396C100.052 93.945 98.0932 92.491 96.3092 90.837C93.2262 87.978 90.7052 84.561 87.6652 81.656C87.1572 81.171 86.6922 80.65 86.2282 80.123C86.2102 80.103 86.1922 80.082 86.1672 80.071C86.1242 80.051 86.0732 80.066 86.0282 80.082C85.6582 80.206 85.2872 80.331 84.9172 80.455C84.5202 80.588 84.1792 80.815 83.7872 80.94C82.9572 81.205 82.1602 81.561 81.3252 81.813C79.0692 82.493 75.0592 83.786 73.3592 85.367C70.8642 87.687 69.2332 91.015 67.9092 94.089C66.5132 97.332 65.1742 99.894 63.6272 103.636C61.9962 107.581 59.9232 112.235 58.2862 116.249C58.2762 116.236 58.2672 116.225 58.2562 116.214Z" fill="#718208"/>
<path d="M69.9161 89.277C69.9941 89.13 70.0721 88.983 70.1501 88.836C70.8951 87.425 71.6191 86.017 72.5921 84.759C73.0181 84.208 73.4791 83.674 74.0401 83.261C74.8881 82.635 75.9171 82.315 76.8841 81.896C78.3821 81.248 79.7691 80.34 80.9621 79.227C81.5661 78.664 82.1341 78.05 82.8091 77.581C83.3711 77.794 83.9241 78.02 84.4351 78.418C84.8691 78.756 85.2531 79.153 85.6831 79.495C85.9671 79.72 86.3411 79.789 86.2051 80.03C86.1941 80.049 86.1931 80.068 86.1861 80.087C86.1791 80.082 86.1741 80.074 86.1661 80.07C86.1231 80.05 86.0721 80.065 86.0271 80.08C85.6571 80.204 85.2861 80.329 84.9161 80.453C84.5191 80.586 84.1781 80.813 83.7861 80.938C82.9561 81.203 82.1591 81.559 81.3241 81.811C79.0681 82.491 75.0581 83.784 73.3571 85.365C71.0441 87.516 69.4771 90.53 68.2061 93.408C68.5641 91.958 69.2141 90.592 69.9161 89.277Z" fill="#526705"/>
<path d="M86.2292 80.122C86.2112 80.102 86.1932 80.081 86.1682 80.07C86.1492 80.062 85.8442 79.809 85.7202 79.713C85.0372 79.19 84.4632 78.842 83.6932 78.459C82.8732 78.05 82.0112 77.726 81.1262 77.489C82.0612 76.919 83.0092 76.375 83.9842 75.893C85.4602 75.163 85.9752 75.024 87.5432 75.497C89.6762 76.141 91.9212 76.673 93.8242 77.824C93.7482 77.828 93.6922 77.828 93.6622 77.824C92.8772 77.712 91.6792 77.216 90.8862 77.114C89.9052 76.989 86.8912 75.854 85.9602 77.341C85.2982 78.398 88.9112 81.003 89.5902 81.859C93.1202 86.307 96.3592 89.478 100.74 93.039C102.945 94.831 106.359 97.022 108.45 98.946C108.929 99.387 114.107 102.875 114.088 102.954C114.107 102.873 113.854 102.156 113.87 102.042L113.871 102.043C114.301 102.602 114.721 103.168 115.135 103.739C115.225 103.864 115.315 103.988 115.405 104.114C115.827 104.705 116.242 105.301 116.642 105.908C115.322 105.104 114.04 104.241 112.778 103.348C111.516 102.455 110.274 101.533 109.032 100.612C106.69 98.874 104.348 97.135 102.006 95.397C101.029 94.672 100.051 93.945 99.0942 93.194C98.1372 92.442 97.2012 91.665 96.3092 90.838C93.2262 87.979 90.7052 84.562 87.6652 81.657C87.1582 81.169 86.6932 80.649 86.2292 80.122Z" fill="#96A31D"/>
<path d="M60.8632 103.793C61.2952 104.082 61.8972 103.985 62.3292 103.697C62.7612 103.408 63.0602 102.964 63.3442 102.529C64.3332 101.016 65.2782 99.474 66.1822 97.908C65.3672 99.662 64.5342 101.445 63.6292 103.634C61.9982 107.579 59.9252 112.233 58.2882 116.247C58.2782 116.236 58.2682 116.225 58.2582 116.214C58.0962 116 57.9322 115.787 57.7722 115.572C57.6242 115.332 57.4512 115.1 57.2652 114.888C57.0302 114.571 56.7922 114.257 56.5542 113.943C57.1502 112.128 59.0822 107.706 60.8452 103.776C60.8502 103.781 60.8552 103.788 60.8632 103.793Z" fill="#526705"/>
<path d="M52.0931 87.797C48.6901 94.613 46.3991 101.981 42.8231 108.687C39.0831 115.701 34.2981 122.304 29.1921 128.377C35.2501 124.245 40.6061 119.092 44.9891 113.215C48.8841 107.992 50.5071 101.936 53.0191 96.016C53.3731 96.115 53.4931 96.547 53.5541 96.909C54.4281 102.118 56.6561 107.474 56.1741 112.822C55.8991 115.882 54.3021 118.763 53.2051 121.584C51.9241 124.878 50.5601 128.137 49.3251 131.45C47.9251 135.205 46.6021 138.988 45.3551 142.797C38.0711 165.06 32.4641 188.505 30.7511 211.879C30.6901 212.715 30.6461 213.61 31.0701 214.334C31.4941 215.058 32.5771 215.45 33.1931 214.881C36.4921 189.176 41.0801 163.226 49.5791 138.68C51.3481 133.57 53.2951 128.523 55.3681 123.53C56.9201 119.792 58.8651 116.27 60.0601 112.404C60.0971 112.285 60.1341 112.159 60.1071 112.038C60.0751 111.89 59.9571 111.779 59.8601 111.663C59.4711 111.194 59.3911 110.55 59.3091 109.945C58.3021 102.475 56.1781 95.037 54.5201 87.67C54.4291 87.267 54.3081 86.82 53.9541 86.608C53.2411 86.181 52.4651 87.052 52.0931 87.797Z" fill="#718208"/>
<path d="M56.1742 112.823C56.4202 110.088 55.9572 107.35 55.3292 104.631C56.7982 107.921 57.3312 111.026 56.8042 114.611C56.3912 117.422 54.3682 119.499 54.5742 122.397C54.6072 122.864 54.9392 123.296 55.3552 123.565C54.9792 124.472 54.6112 125.383 54.2432 126.293C52.9812 126.697 51.7772 127.278 50.6582 128.001C51.5042 125.861 52.3722 123.729 53.2062 121.584C54.3022 118.764 55.8992 115.882 56.1742 112.823Z" fill="#526705"/>
<path opacity="0.5" d="M97.7131 87.588C95.7571 85.664 93.8371 83.716 92.0541 81.63C90.9341 80.319 89.5021 79.357 88.4791 77.919C88.2861 77.647 88.1061 77.308 88.2201 76.994C88.2751 76.842 91.3091 78.467 91.5741 78.611C94.0001 79.919 94.9731 82.286 96.6821 84.352C97.4621 85.296 98.2971 86.193 99.1311 87.09C101.924 90.093 104.716 93.095 107.509 96.098C104.879 94.587 102.68 92.442 100.511 90.322C99.5771 89.408 98.6411 88.501 97.7131 87.588Z" fill="#526705"/>
<path d="M70.2532 84.575C71.2822 83.019 73.7222 82.231 75.4162 81.171C75.6442 81.028 75.8712 80.881 76.0982 80.735C76.0872 80.748 76.0782 80.762 76.0672 80.776C75.4662 81.47 74.6942 81.988 73.8982 82.479C72.9692 83.053 72.0072 83.593 71.2472 84.339C70.1872 85.38 69.5842 86.806 68.9662 88.13C67.6552 90.942 66.0912 93.634 64.3052 96.171C66.2322 92.003 68.6942 86.932 70.2532 84.575Z" fill="#899C18"/>
<path d="M30.8771 126.334C31.1951 125.942 31.5081 125.545 31.8231 125.15C32.0331 124.885 32.2441 124.621 32.4531 124.354C32.8601 123.835 33.2621 123.311 33.6621 122.785C33.7531 122.665 33.8441 122.544 33.9351 122.424C34.3871 121.824 34.8361 121.221 35.2781 120.613C37.6531 118.919 39.9611 117.134 42.1711 115.228C45.9431 111.974 48.1141 105.624 49.7601 101.009C50.8081 98.071 51.6441 95.057 52.2561 91.998C52.5781 90.39 52.3821 88.853 52.4061 87.287C52.8171 86.724 53.4051 86.279 53.9571 86.609C54.3111 86.821 54.4331 87.268 54.5231 87.671C56.1811 95.038 58.3051 102.477 59.3121 109.946C59.3931 110.55 59.4731 111.194 59.8631 111.663C59.9591 111.779 60.0771 111.89 60.1101 112.038C60.1361 112.16 60.0991 112.285 60.0621 112.404C59.9941 112.625 59.9151 112.842 59.8421 113.061C58.7591 111.502 58.0121 109.678 57.5071 107.838C56.6951 104.877 56.4241 101.797 55.7931 98.793C55.4641 97.223 55.0001 95.607 53.9091 94.432C53.6271 94.969 53.3651 95.511 53.1111 96.056C53.0821 96.041 53.0531 96.027 53.0201 96.017C52.0951 98.197 51.2911 100.394 50.4491 102.562C50.4111 102.659 50.3731 102.755 50.3361 102.852C50.2371 103.104 50.1381 103.356 50.0381 103.608C49.9411 103.851 49.8431 104.094 49.7441 104.337C49.6841 104.485 49.6251 104.633 49.5641 104.78C48.3351 107.742 46.9141 110.636 44.9911 113.216C43.3471 115.42 41.5671 117.522 39.6641 119.507C38.3951 120.83 37.0721 122.101 35.6991 123.315C33.6391 125.136 31.4661 126.829 29.1941 128.378C29.7591 127.704 30.3201 127.022 30.8771 126.334Z" fill="#96A31D"/>
<path d="M49.8681 129.579C50.2961 128.448 50.6201 126.652 51.6661 125.968C52.5981 125.358 53.8071 125.375 54.8211 124.966C55.8851 124.537 56.8941 123.848 57.8341 123.106C58.3051 122.734 58.7581 122.349 59.1921 121.976C59.8601 121.402 60.5001 120.795 61.1111 120.16C61.5521 119.701 62.0701 118.534 62.6881 119.336C63.5781 120.491 64.7221 121.448 66.0161 122.12C66.1731 122.201 66.3421 122.289 66.4221 122.446C66.4981 122.596 66.4741 122.775 66.4461 122.941C66.0601 125.25 65.2351 127.45 64.5991 129.695C63.9831 131.867 63.5791 134.083 63.2791 136.315C62.6181 141.239 62.1421 146.21 62.3231 151.184C62.3411 151.681 62.3661 152.179 62.3971 152.676C58.9261 144.885 59.4671 135.975 60.0741 127.468C60.0571 127.701 55.9441 128.407 55.5111 128.537C54.0131 128.986 53.1781 129.672 52.2531 130.937C50.0371 133.966 48.0681 136.467 46.5181 139.318C47.5271 136.16 48.6951 132.678 49.8681 129.579Z" fill="#718208"/>
<path d="M52.8791 129.645C53.3691 128.651 53.8731 127.785 54.5371 126.989C54.9331 126.613 55.3441 126.253 55.7651 125.911C57.6001 124.423 59.4591 122.99 61.3651 121.593C61.2521 122.107 61.0651 123.847 60.9781 124.225C60.7831 125.068 60.0601 127.674 60.0751 127.468C60.0581 127.701 55.9451 128.407 55.5121 128.537C54.0451 128.977 53.2121 129.648 52.3101 130.864C52.4931 130.454 52.6811 130.047 52.8791 129.645Z" fill="#526705"/>
<path d="M49.8682 129.579C50.2962 128.448 50.6202 126.652 51.6662 125.968C52.5982 125.358 53.8072 125.375 54.8212 124.966C55.8852 124.537 56.8942 123.848 57.8342 123.106C58.3052 122.734 58.7582 122.349 59.1922 121.976C59.3032 121.881 59.4092 121.781 59.5182 121.684C59.2452 122.052 58.9732 122.421 58.7002 122.789C58.4182 123.17 58.1352 123.552 57.7952 123.882C57.3892 124.277 56.9122 124.588 56.4382 124.897C55.3142 125.63 54.3802 126.084 53.1002 126.487C52.7922 126.584 52.4772 126.684 52.2162 126.875C52.0022 127.031 51.8342 127.24 51.6722 127.449C50.9742 128.347 50.3242 129.288 49.6382 130.196C49.7152 129.989 49.7922 129.781 49.8682 129.579Z" fill="#96A31D"/>
<path d="M60.0352 127.506C60.3802 126.158 60.7522 124.812 61.0052 123.452C61.0702 123.103 61.1272 122.753 61.1732 122.401C61.2232 122.021 61.1772 121.08 61.1742 120.086C61.6012 119.59 62.0992 118.57 62.6872 119.334C62.7742 119.447 62.8752 119.549 62.9662 119.658C62.6032 123.809 61.6732 127.851 60.9412 131.948C60.4582 134.652 60.3192 137.361 60.2152 140.087C60.1552 141.66 60.5742 143.164 60.7992 144.705C61.0242 146.248 61.3092 147.712 61.9272 149.156C61.9912 149.079 62.0272 148.983 62.0592 148.889C62.1512 148.625 62.2272 148.356 62.2962 148.085C62.2812 149.117 62.2842 150.149 62.3222 151.181C62.3402 151.679 62.3652 152.176 62.3962 152.673C58.9252 144.882 59.4662 135.972 60.0732 127.465C60.0742 127.479 60.0562 127.492 60.0352 127.506Z" fill="#96A31D"/>
<path d="M47.9131 158.26C50.0281 153.115 54.2101 152.404 59.4481 153.065C50.1141 160.102 46.1651 172.259 43.2091 183.239C39.9341 195.404 37.1071 207.122 36.0031 219.631C35.9901 219.781 35.9761 219.931 35.9631 220.081C35.8491 221.385 35.8101 222.717 35.5631 224.007C35.5181 224.242 35.4661 224.475 35.4061 224.707C35.3771 224.819 35.3381 224.942 35.2381 225.001C35.1761 225.039 35.1001 225.044 35.0281 225.049C32.9681 225.189 30.9011 225.233 28.8371 225.183C28.5321 225.176 27.7271 225.238 27.5991 224.875C27.5751 224.806 27.5761 224.732 27.5781 224.659C27.6051 223.699 27.7161 222.744 27.7491 221.785C27.7801 220.876 27.8761 219.969 27.9891 219.067C28.1661 217.65 28.4581 216.241 28.5921 214.82C28.9651 210.853 29.4181 206.894 29.9611 202.947C31.0461 195.059 32.4911 187.219 34.3811 179.483C35.4851 174.963 36.6721 170.463 37.8881 165.971C38.4981 163.714 39.1171 161.46 39.7351 159.206C40.1931 157.536 40.3331 155.873 40.8831 154.226C40.9911 153.904 41.1231 153.552 41.4221 153.391C41.6331 153.278 41.8861 153.285 42.1251 153.297C43.6581 153.374 45.3861 153.594 46.8231 154.143C45.3641 153.586 41.8991 163.678 41.6591 164.557C39.0401 174.143 36.7581 183.702 35.7521 193.599C37.8661 189.148 38.8721 183.764 40.3121 179.036C42.4621 171.977 45.1101 165.081 47.9131 158.26Z" fill="#657C04"/>
<path d="M109.634 116.046C102.441 117.524 96.0222 120.227 89.9392 124.327C86.7542 126.474 83.7462 128.884 80.9612 131.53C78.3242 134.035 75.6502 135.451 72.4702 137.257C65.1022 141.44 57.1842 144.529 49.2832 147.534C46.7842 148.484 43.6122 149.499 41.6482 151.402C40.0582 152.942 39.9512 154.61 39.4882 156.759C38.9072 159.457 38.8122 162.967 37.8772 165.46C40.0602 159.634 44.6592 155.835 49.8992 153.021C53.7462 150.956 57.6062 148.56 61.6352 146.924C67.0982 144.707 72.4652 142.205 77.5422 139.199C82.9732 135.983 86.8132 130.858 91.4382 126.682C96.7792 121.858 103.22 119.165 109.634 116.046Z" fill="#87870E"/>
<path d="M66.145 153.509C66.419 153.443 66.693 153.374 66.967 153.304C69.881 152.558 72.733 151.453 75.659 150.781C78.401 150.152 81.343 149.984 84.159 149.607C84.499 149.561 84.858 149.518 85.177 149.646C85.458 149.759 85.671 149.99 85.871 150.216C89.229 154.005 92.011 158.53 96.424 161.011C93.774 156.979 91.443 152.738 89.461 148.339C89.235 147.837 88.983 147.299 88.501 147.033C88.129 146.827 87.684 146.821 87.259 146.821C82.15 146.809 77.509 148.114 72.41 148.539C67.358 149.052 62.297 149.67 57.362 150.903C54.948 151.648 52.55 152.597 50.572 154.167C48.352 155.93 47.596 159.032 46.542 161.54C49.083 159.185 50.915 156.101 54.523 155.235C56.461 154.769 58.431 154.816 60.404 154.574C62.337 154.335 64.252 153.966 66.145 153.509Z" fill="#718208"/>
<path opacity="0.6" d="M102.934 117.855C100.803 119.558 98.4662 121.01 96.0922 122.35C92.4222 124.421 89.7342 126.801 86.7122 129.769C81.7552 134.637 76.0352 138.722 69.8352 141.856C66.7672 143.407 63.4762 144.338 60.3812 145.767C57.6642 147.021 55.1392 148.814 52.3512 150.082C50.2032 151.059 48.0012 151.98 46.0342 153.301C43.9952 154.67 42.3972 156.476 40.8212 158.32C40.0102 159.269 39.3562 160.284 38.7922 161.335C38.5832 162.809 38.3292 164.254 37.8772 165.459C40.0602 159.633 44.6592 155.834 49.8992 153.02C53.7462 150.955 57.6062 148.559 61.6352 146.923C67.0982 144.706 72.4652 142.204 77.5432 139.198C82.9742 135.982 86.8142 130.857 91.4392 126.681C96.7792 121.859 103.22 119.166 109.634 116.046C107.326 116.52 105.098 117.122 102.934 117.855Z" fill="#B2AF34"/>
<path d="M37.7402 188.292C37.1782 190.136 36.5432 191.933 35.7512 193.599C35.8542 192.59 35.9782 191.587 36.1062 190.584C33.8652 201.162 32.2832 211.88 30.3512 222.497C31.2852 210.034 32.6952 197.491 33.1352 185.01C33.0542 185.33 32.9812 185.653 32.9062 185.975C32.6782 187.051 32.4592 188.129 32.2472 189.208C31.1772 195.28 30.8642 201.674 30.2612 207.701C29.6792 213.519 29.2012 219.348 28.8162 225.183C28.8222 225.183 28.8312 225.183 28.8372 225.183C30.2432 225.217 31.6502 225.204 33.0552 225.15C33.2122 218.498 33.6482 211.833 34.5962 205.29C35.2692 200.649 36.3622 196.083 37.2792 191.488C37.4852 190.457 37.6262 189.383 37.7402 188.292Z" fill="#375416"/>
<path opacity="0.6" d="M88.546 147.067C86.163 148.403 83.477 149.2 80.747 149.336C78.88 149.429 77 149.227 75.144 149.447C70.436 150.004 66.239 153.222 61.498 153.186C59.281 153.169 57.008 152.435 54.889 153.088C53.639 153.473 52.581 154.308 51.596 155.168C50.947 155.735 49.193 157.315 47.449 159.194C47.142 159.994 46.855 160.792 46.541 161.538C49.082 159.183 50.914 156.099 54.522 155.233C56.46 154.767 58.43 154.814 60.403 154.572C62.336 154.335 64.251 153.965 66.144 153.508C66.418 153.442 66.692 153.373 66.966 153.303C69.88 152.557 72.732 151.452 75.658 150.78C78.4 150.151 81.342 149.983 84.158 149.606C84.498 149.56 84.857 149.517 85.176 149.645C85.457 149.758 85.67 149.989 85.87 150.215C89.228 154.004 92.01 158.529 96.423 161.01C93.773 156.978 91.442 152.737 89.46 148.338C89.242 147.855 88.995 147.342 88.546 147.067Z" fill="#B6BC46"/>
<path d="M62.571 143.988C61.418 142.188 59.91 141.392 58.529 140.247C56.909 138.904 55.329 137.417 53.715 136.051C51.552 134.221 49.434 133.118 46.979 134.542C43.847 136.359 40.821 139.3 38.185 142.735C36.098 145.455 34.263 148.657 32.437 151.846C29.87 156.328 27.154 160.447 25.096 165.565C22.955 170.889 21.068 176.439 19.275 182.078C18.493 184.536 17.685 186.972 16.864 189.397C16.054 191.789 15.655 193.819 15.133 196.364C14.087 201.464 13.115 206.745 11.803 211.697C10.566 216.369 9.93301 221.316 9.17001 226.271C9.12501 226.562 9.09201 226.922 9.23101 227.105C9.31201 227.212 9.42601 227.219 9.53201 227.22C11.248 227.249 12.964 227.278 14.68 227.307C14.968 227.312 17.806 227.601 17.879 226.944C18.31 223.036 18.481 219.195 19.191 215.334C20.052 210.652 21.108 206.056 22.321 201.568C24.738 192.632 27.776 184.149 31.118 176.019C32.939 171.59 34.852 167.261 36.814 162.994C37.799 160.851 38.797 158.724 39.803 156.607C40.288 155.587 40.775 154.569 41.263 153.552C41.644 152.759 42.205 150.996 42.731 150.507C35.703 157.035 30.89 168.456 26.516 179.616C23.612 187.025 20.782 194.508 18.025 202.061C19.999 192.041 22.672 182.459 26.154 173.529C29.129 165.9 31.403 157.178 34.936 150.178C37.284 145.526 40.416 141.661 43.98 140.502C45.431 140.03 46.91 140.016 48.373 140.112C53.247 140.175 57.874 142.358 62.571 143.988Z" fill="#657C04"/>
<path d="M39.6721 143.339C38.5951 143.991 37.4991 144.549 36.4611 145.37C36.3561 145.453 36.2551 145.555 36.1511 145.642C36.8071 144.632 37.4801 143.652 38.1851 142.734C40.8211 139.299 43.8481 136.358 46.9791 134.541C49.4341 133.117 51.5521 134.219 53.7151 136.05C55.3291 137.416 56.9081 138.903 58.5291 140.246C59.9101 141.391 61.4181 142.187 62.5711 143.987C57.8751 142.357 53.2471 140.174 48.3711 140.114C46.9081 140.018 45.4281 140.032 43.9781 140.504C42.4531 141 41.0111 142.002 39.6721 143.339Z" fill="#90A511"/>
<path d="M48.0629 136.568C46.4929 136.794 44.9719 137.269 43.4589 137.742C43.0649 137.865 42.6699 137.992 42.2849 138.142C42.7929 137.659 43.3089 137.205 43.8299 136.773C45.1819 136.197 46.6029 135.783 48.0569 135.572C51.0319 135.139 54.2169 137.587 56.2679 139.499C54.8429 138.632 53.3049 137.97 51.7729 137.311C50.5119 136.769 49.4579 136.368 48.0629 136.568Z" fill="#69820B"/>
<path opacity="0.8" d="M39.9521 142.164C40.1971 141.98 40.4441 141.799 40.6871 141.612C40.9291 141.426 41.1701 141.238 41.4081 141.049C45.3721 137.9 50.9151 138.697 55.3601 140.276C56.1421 140.554 56.9281 140.827 57.6901 141.155C58.4121 141.466 59.0561 141.928 59.8211 142.14C58.3911 140.679 57.0921 139.112 55.6021 137.698C56.5741 138.561 57.5441 139.43 58.5301 140.247C59.9111 141.392 61.4191 142.188 62.5721 143.988C57.8761 142.358 53.2481 140.175 48.3721 140.115C46.9091 140.019 45.4291 140.033 43.9791 140.505C42.4541 141.001 41.0131 142.003 39.6741 143.34C38.9691 143.767 38.2571 144.159 37.5571 144.606C38.3611 143.812 39.1511 142.981 39.9521 142.164Z" fill="#E1E846"/>
<path d="M28.1651 139.061C27.6911 138.552 27.1741 138.094 26.5991 137.709C28.8181 133.105 31.2251 128.321 33.8361 123.387C44.7751 102.709 57.0351 87.024 57.0351 87.024L60.2531 85.916C59.9341 86.264 44.4601 106.78 34.5311 126.064C32.2791 130.438 30.1571 134.79 28.1651 139.061Z" fill="#C9841F"/>
<path d="M28.1651 139.061C27.9481 138.828 27.7221 138.607 27.4861 138.398C27.6451 138.06 27.8041 137.723 27.9631 137.39C40.5851 110.881 50.3171 98.919 58.8121 86.409L60.2531 85.916C59.9341 86.264 44.4591 106.78 34.5311 126.064C32.2791 130.438 30.1571 134.79 28.1651 139.061Z" fill="#A56520"/>
<path d="M73.8651 73.279C76.6081 71.552 79.5471 70.139 82.6441 69.182C85.9041 68.174 89.3391 68 92.6991 67.53C93.9011 67.362 95.1061 67.193 96.3191 67.164C99.7441 67.081 103.088 68.105 106.361 69.118C106.75 69.238 107.185 69.398 107.343 69.773C107.729 70.685 105.884 70.694 105.448 70.675C96.8871 70.299 88.6271 71.647 80.4871 74.153C81.8571 74.362 83.0051 74.947 84.3041 75.335C85.4791 75.685 86.7521 75.738 87.9421 76.075C90.1721 76.706 92.4611 77.188 94.7171 77.778C97.3781 78.475 100.01 79.285 102.603 80.206C102.934 80.324 103.285 80.458 103.492 80.742C103.699 81.026 103.67 81.507 103.349 81.651C103.197 81.719 103.022 81.697 102.857 81.674C97.7601 80.934 92.6831 79.303 87.5671 79.903C90.4151 80.896 93.2631 81.889 96.1111 82.882C96.6241 83.061 97.2581 83.523 96.9911 83.996C96.8951 84.167 90.7801 82.82 90.1461 82.732C87.7651 82.399 85.3701 82.172 82.9691 82.053C79.3411 81.512 75.7031 82.159 72.1011 82.41C71.8041 82.431 71.4951 82.455 71.2421 82.611C70.9891 82.766 70.8161 83.097 70.9371 83.368C72.0061 83.446 73.0741 83.525 74.1431 83.603C74.4571 83.626 74.8511 83.716 74.9071 84.026C74.9431 84.226 74.7991 84.424 74.6181 84.516C74.4371 84.608 74.2271 84.62 74.0241 84.629C71.1261 84.764 68.3911 84.933 65.5261 85.448C64.0881 85.707 62.6551 85.996 61.2281 86.314C60.4121 86.496 57.7381 86.683 57.2061 87.298C60.6971 83.267 64.9601 80.166 69.0381 76.79C70.5661 75.521 72.1791 74.341 73.8651 73.279Z" fill="#BF7D2E"/>
<path d="M61.2271 86.312C60.4111 86.495 57.7371 86.682 57.2051 87.296C60.6961 83.265 64.9591 80.164 69.0371 76.788C70.5661 75.522 72.1781 74.342 73.8641 73.28C76.6071 71.552 79.5461 70.139 82.6431 69.182C85.9031 68.174 89.3381 68 92.6981 67.53C93.9001 67.362 95.1051 67.193 96.3181 67.164C97.0091 67.147 97.6941 67.203 98.3791 67.267C98.2431 67.329 98.1051 67.384 97.9671 67.439C97.7171 67.54 97.4581 67.624 97.2001 67.708C96.6611 67.884 96.1261 68.066 95.6911 68.421C98.0151 69.33 100.408 70.065 102.843 70.616C102.871 70.623 102.954 70.648 103.073 70.686C95.3601 70.632 87.8681 71.879 80.4871 74.152C81.8571 74.361 83.0051 74.946 84.3041 75.334C85.0491 75.555 85.8281 75.675 86.6051 75.807C85.2111 76.01 83.8781 76.415 82.4761 76.629C81.8271 76.728 81.2001 76.677 80.5431 76.8C80.1821 76.867 78.6821 77.708 78.4761 77.632C80.6871 78.447 83.6491 78.336 85.9841 78.454C88.9491 78.602 91.9271 79.706 94.9011 80.095C97.5661 80.443 100.359 80.686 102.818 81.666C97.9401 80.954 93.0791 79.482 88.1871 79.888C86.5841 79.772 84.9931 79.769 83.3401 79.676C80.9971 79.544 78.6551 79.256 76.3051 79.402C75.1641 79.472 74.0301 79.644 72.9191 79.913C72.0321 80.128 71.0751 80.474 70.6381 81.275C75.9781 80.645 81.1731 81.035 86.3971 82.159C86.9951 82.288 87.5941 82.417 88.1921 82.546C86.4541 82.346 84.7161 82.139 82.9691 82.052C79.3411 81.512 75.7031 82.158 72.1011 82.409C71.8041 82.43 71.4951 82.455 71.2411 82.61C70.9881 82.765 70.8151 83.095 70.9361 83.367C72.0041 83.445 73.0731 83.523 74.1421 83.602C74.4561 83.625 74.8501 83.715 74.9061 84.025C74.9421 84.225 74.7981 84.423 74.6171 84.515C74.4361 84.608 74.2261 84.619 74.0231 84.628C71.1261 84.763 68.3901 84.932 65.5251 85.447C64.0871 85.704 62.6541 85.993 61.2271 86.312Z" fill="#A56520"/>
<path d="M103.916 60.504C107.79 60.064 111.901 59.505 115.767 60.295C112.206 60.789 108.584 60.84 105.032 61.332C101.955 61.758 98.9122 63.224 95.9332 64.113C94.3222 64.594 92.6872 65.078 91.0052 65.116C89.6872 65.146 88.3072 64.909 87.0942 65.423C89.8412 64.263 92.9002 63.689 95.6932 62.573C96.9742 62.061 98.2192 61.399 99.5532 61.11C100.987 60.799 102.459 60.669 103.916 60.504Z" fill="#F9E382"/>
<path d="M107.758 78.797C104.475 75.292 99.6371 73.975 95.0331 73.252C93.8881 73.072 92.7091 72.937 91.6751 72.414C92.8161 71.819 94.1971 72.097 95.4511 72.39C101.18 73.726 106.819 75.766 111.959 78.715C112.562 79.061 113.527 79.654 114.206 79.071C113.712 77.818 112.054 76.786 110.976 76.024C105.055 71.837 98.1761 70.02 91.1611 68.649C92.1751 68.024 93.3171 67.608 94.4961 67.436C97.0931 67.057 99.4031 66.49 102.098 66.521C105.419 66.559 108.703 67.053 112.013 67.256C112.533 67.288 113.286 67.047 113.124 66.552C112.904 65.878 110.384 65.193 109.767 65.105C106.338 64.614 102.903 64.273 99.4661 63.903C99.7081 63.929 100.26 63.597 100.734 63.32C100.993 63.168 101.229 63.033 101.379 62.981C102.064 62.744 102.781 62.623 103.484 62.471C105.105 62.123 106.734 61.86 108.391 61.694C110.284 61.504 112.184 61.408 114.085 61.352C115.219 61.319 118.219 62.114 118.944 61.037C118.107 60.1 116.426 59.888 115.24 59.701C114.391 59.567 112.276 58.977 111.505 59.284C114.698 58.015 118.194 58.065 121.537 58.67C122.702 58.881 122.706 58.159 122.086 57.523C121.484 56.905 120.346 56.596 119.542 56.366C114.113 54.811 108.474 54.54 102.856 55.044C99.5721 55.339 96.6761 56.12 93.4851 56.973C87.2901 58.627 81.1311 60.36 75.9141 64.254C71.7801 67.339 68.6081 71.349 65.2201 75.161C61.6791 79.144 58.7971 83.649 55.9331 88.127C61.5611 84.324 67.1431 80.561 73.4941 78.088C78.5291 76.005 83.8981 74.84 89.3621 75.032C92.7111 75.15 96.0411 75.676 99.2821 76.518C100.799 76.912 102.232 77.257 103.64 77.931C104.479 78.333 105.287 78.855 106.091 79.323C106.687 79.669 107.595 80.166 108.282 80.159C108.463 79.678 108.109 79.172 107.758 78.797Z" fill="#F7C359"/>
<path opacity="0.4" d="M55.9321 88.126C58.7961 83.649 61.6791 79.144 65.2191 75.16C68.6071 71.348 71.7791 67.338 75.9131 64.253C80.1511 61.091 85.0161 59.367 90.0111 57.94C89.6771 58.12 89.3441 58.306 89.0161 58.474C85.5691 60.242 82.0271 62.218 78.7681 64.312C77.0641 65.407 75.4601 66.66 73.9861 68.049C72.8121 69.156 71.6381 71.329 70.3231 72.141C73.6731 70.072 77.0331 68.164 80.4471 66.232C83.8591 64.301 87.5241 62.838 91.1151 61.199C94.4451 59.679 97.7191 57.892 101.353 57.21C97.7111 58.446 93.8891 59.799 91.3741 62.708C95.7471 62.035 99.7351 59.063 104.123 58.154C105.355 57.899 106.607 57.715 107.865 57.722C109.209 57.73 110.548 57.955 111.891 57.898C113.505 57.828 115.073 57.353 116.676 57.149C118.314 56.941 119.961 57.03 121.603 57.231C121.761 57.332 121.964 57.398 122.085 57.522C122.705 58.158 122.701 58.879 121.536 58.669C118.713 58.158 115.791 58.096 113.025 58.838C109.838 58.935 106.659 59.282 103.531 59.9C97.4271 61.106 91.6451 63.75 85.8311 65.922C83.7581 66.696 81.6691 67.478 79.7951 68.655C90.5321 65.572 101.97 65.023 112.967 66.98C112.742 67.173 112.343 67.275 112.014 67.255C108.704 67.052 105.42 66.558 102.099 66.52C99.4041 66.489 97.0941 67.056 94.4971 67.435C93.4941 67.581 92.5341 67.938 91.6411 68.416C89.3431 68.57 87.0471 68.753 84.7581 68.956C80.5381 69.331 77.1671 70.492 73.2471 71.777C69.9001 72.874 67.4761 75.718 65.2331 78.434C66.0451 78.176 66.7481 77.666 67.4521 77.185C71.4641 74.447 75.6011 73.121 80.0991 71.612C83.4621 70.483 86.4221 70.438 89.9331 70.739C93.8221 71.072 97.6701 71.96 101.26 73.507C102.219 73.921 103.139 74.42 104.017 74.984C101.22 73.922 98.3491 73.065 95.4531 72.389C94.4771 72.162 93.4281 71.956 92.4711 72.151C91.1051 71.833 89.7271 71.584 88.3271 71.52C84.1721 71.331 80.1191 72.687 76.1811 74.025C74.1811 74.704 71.9711 75.568 71.1061 77.493C76.1141 75.408 81.4801 74.182 86.8971 73.885C88.8561 73.778 90.8261 73.792 92.7741 74.022C95.9921 74.403 99.1191 75.371 102.114 76.606C103.098 77.012 105.881 77.938 108.017 79.151C108.243 79.466 108.417 79.81 108.285 80.158C107.598 80.164 106.689 79.667 106.094 79.321C105.29 78.854 104.482 78.331 103.643 77.93C102.235 77.256 100.802 76.91 99.2851 76.517C96.0431 75.675 92.7141 75.15 89.3651 75.031C83.9011 74.838 78.5321 76.004 73.4971 78.087C67.1421 80.559 61.5601 84.323 55.9321 88.126Z" fill="#CE770F"/>
<path opacity="0.4" d="M110.632 65.307C111.607 65.575 112.965 66.063 113.124 66.551C113.286 67.046 112.533 67.287 112.013 67.255C108.703 67.052 105.419 66.558 102.098 66.52C99.4031 66.489 97.0931 67.056 94.4961 67.435C93.3601 67.601 92.2631 68.004 91.2761 68.592C87.5271 68.421 83.7601 68.656 80.0691 69.331C85.5271 67.642 91.0491 65.94 96.7521 65.585C101.364 65.298 106.093 65.872 110.632 65.307Z" fill="#995416"/>
<path opacity="0.4" d="M55.9321 88.126C58.7961 83.649 61.6791 79.144 65.2191 75.16C68.0721 71.95 70.8071 68.634 74.0561 65.814C72.2861 67.95 70.4661 70.047 68.6361 72.128C73.7201 70.052 78.8051 67.976 83.8891 65.9C86.3211 64.907 88.7891 63.904 91.3961 63.581C85.5541 66.039 79.7131 68.497 73.8711 70.954C71.6791 71.877 69.4381 72.831 67.6991 74.453C66.6681 75.415 65.8511 76.579 65.0421 77.734C64.0021 79.219 62.9611 80.705 61.9211 82.19C65.3531 79.759 69.0071 77.642 72.8241 75.874C70.0901 77.81 67.3571 79.746 64.6231 81.682C65.8461 81.261 67.2871 80.498 68.5711 80.323C64.1711 82.577 60.0611 85.336 55.9321 88.126Z" fill="#995416"/>
<path d="M91.9401 59.556C89.1481 60.845 86.5961 62.631 83.8471 63.907C82.4621 64.55 81.1541 65.335 79.8391 66.105C79.1801 66.491 78.5221 66.879 77.8491 67.24C77.3891 67.487 76.3021 67.772 75.9841 68.155C79.1121 64.392 83.0551 62.243 87.3271 60.058C88.4471 59.485 89.6511 59.095 90.8481 58.708C93.1031 57.979 95.2951 57.097 97.6171 56.695C99.7591 56.324 101.947 55.773 104.088 55.494C108.047 54.979 112.307 55.759 116.175 56.602C115.448 56.738 114.613 56.627 113.86 56.684C111.897 56.834 110.059 56.995 108.086 56.94C107.704 56.929 107.322 56.919 106.942 56.956C106.329 57.015 105.736 57.196 105.147 57.376C103.667 57.828 102.188 58.28 100.708 58.732C101.128 57.825 103.296 56.721 104.23 56.587C102.717 56.803 101.203 57.019 99.6901 57.235C98.4431 57.413 97.1911 57.592 95.9791 57.937C94.5821 58.336 93.2581 58.948 91.9401 59.556Z" fill="#F9E382"/>
<path d="M77.5771 71.738C78.1021 71.553 78.6481 71.396 79.2651 71.266C82.0991 70.671 85.0331 69.694 87.9491 70.133C91.7221 70.701 95.9171 70.969 99.5151 72.253C103.48 73.668 107.191 75.856 111.214 77.046C109.742 75.444 107.694 74.78 105.739 73.906C103.699 72.994 101.635 72.134 99.5571 71.312C96.3911 70.06 92.3201 68.986 88.9031 68.981C85.3381 68.976 82.1371 69.798 78.7351 70.607C76.1741 71.217 73.1201 71.721 71.3931 73.943C71.5761 73.708 73.0621 73.548 73.4121 73.431C74.1281 73.19 74.8511 72.915 75.5371 72.596C76.2551 72.263 76.8991 71.977 77.5771 71.738Z" fill="#F9E382"/>
<path d="M80.6761 73.133C79.8851 73.302 79.0121 73.526 78.5701 74.204C84.0381 73.436 89.6151 73.442 95.0811 74.22C90.7491 71.853 85.2941 72.144 80.6761 73.133Z" fill="#F9E382"/>
<path d="M29.878 134.354C29.488 133.885 29.408 133.241 29.326 132.637C26.165 109.343 32.846 83.998 41.272 62.383C38.798 65.112 37.337 68.586 35.958 72.001C31.001 84.283 24.681 97.015 25.011 110.435C25.218 118.847 26.93 127.235 26.192 135.517C25.919 138.577 24.325 141.46 23.231 144.281C21.953 147.577 20.592 150.836 19.36 154.151C17.964 157.907 16.644 161.692 15.401 165.501C15.243 165.985 11.468 179.384 8.884 188.935C7.559 193.834 0.949 221.766 0 226.246C1.102 226.459 2.251 226.388 3.375 226.436C3.488 226.441 3.588 226.443 3.693 226.445C4.809 221.503 10.064 193.863 11.281 189.69C14.265 179.454 18.43 164.831 19.622 161.379C21.386 156.268 23.329 151.219 25.397 146.223C26.945 142.484 28.888 138.96 30.078 135.093C30.115 134.974 30.152 134.848 30.125 134.727C30.093 134.581 29.975 134.47 29.878 134.354Z" fill="#90A511"/>
<path d="M25.396 146.225C25.63 145.66 25.875 145.101 26.122 144.543C25.952 144.102 25.838 143.661 25.787 143.272C25.571 141.621 26.056 139.923 26.6 138.381C27.245 136.557 27.662 135.552 27.386 133.539C27.164 131.916 26.954 129.802 26.441 128.247C26.387 128.082 26.338 127.916 26.286 127.75C26.412 130.348 26.42 132.938 26.19 135.518C25.917 138.578 24.323 141.461 23.229 144.282C22.125 147.128 20.964 149.95 19.873 152.802C20.856 152.714 21.841 152.663 22.827 152.645C23.662 150.496 24.515 148.354 25.396 146.225Z" fill="#69820B"/>
<path d="M36.08 71.703C33.639 80.081 31.052 88.42 29.228 96.951C28.64 99.701 27.797 102.396 27.342 105.175C26.889 107.939 26.962 110.814 26.993 113.607C27.034 117.391 27.268 121.172 27.691 124.932C27.994 127.624 28.053 130.444 28.782 133.067C28.995 133.832 29.09 134.572 29.121 135.305C29.158 136.21 29.096 137.103 29.03 138.016C29.416 137.058 29.772 136.088 30.078 135.094C30.115 134.975 30.152 134.849 30.125 134.728C30.093 134.58 29.975 134.47 29.878 134.353C29.488 133.884 29.408 133.24 29.326 132.636C26.165 109.342 32.846 83.997 41.272 62.382C38.87 65.032 37.423 68.384 36.08 71.703Z" fill="#B1C636"/>
<path d="M18.2289 156.782C18.9609 154.605 19.3709 152.13 20.7369 150.264C21.8429 148.754 24.0999 148.174 25.6269 147.213C28.4469 145.437 31.1989 143.409 34.1889 141.927C35.6649 141.196 36.1789 141.056 37.7469 141.528C40.3939 142.324 43.2149 142.947 45.3409 144.797C47.3649 146.558 48.7799 148.912 50.2889 151.098C55.3319 158.403 61.9859 164.503 66.8739 171.912C64.2319 170.307 61.7429 168.463 59.2589 166.623C56.9159 164.887 54.5719 163.15 52.2279 161.414C50.2729 159.965 48.3129 158.513 46.5269 156.86C43.4409 154.004 40.9169 150.59 37.8749 147.687C37.3669 147.202 36.9019 146.681 36.4369 146.155C36.4189 146.135 36.3999 146.114 36.3759 146.103C36.3319 146.083 36.2819 146.098 36.2369 146.114C35.8669 146.239 35.4969 146.364 35.1269 146.488C34.7299 146.622 34.3889 146.849 33.9969 146.974C33.1669 147.24 32.3699 147.597 31.5359 147.849C29.3329 148.516 27.0489 149.533 25.0529 150.702C23.0169 151.895 22.0749 154.436 20.8969 156.376C19.0669 159.39 17.2739 162.416 15.4409 165.429C16.1859 162.677 17.0569 159.96 18.0499 157.287C18.1129 157.12 18.1719 156.952 18.2289 156.782Z" fill="#90A511"/>
<path d="M18.2289 156.782C18.9609 154.605 19.3709 152.13 20.7369 150.264C21.8429 148.754 24.0999 148.174 25.6269 147.213C28.4469 145.437 31.1989 143.409 34.1889 141.927C35.6649 141.196 36.1789 141.056 37.7469 141.528C40.3939 142.324 43.2149 142.947 45.3409 144.797C47.3649 146.558 48.7799 148.912 50.2889 151.098C55.3319 158.403 61.9859 164.503 66.8739 171.912C64.2319 170.307 61.7429 168.463 59.2589 166.623C56.9159 164.887 54.5719 163.15 52.2279 161.414C50.2729 159.965 48.3129 158.513 46.5269 156.86C43.4409 154.004 40.9169 150.59 37.8749 147.687C37.3669 147.202 36.9019 146.681 36.4369 146.155C36.4189 146.135 36.3999 146.114 36.3759 146.103C36.3319 146.083 36.2819 146.098 36.2369 146.114C35.8669 146.239 35.4969 146.364 35.1269 146.488C34.7299 146.622 34.3889 146.849 33.9969 146.974C33.1669 147.24 32.3699 147.597 31.5359 147.849C29.3329 148.516 27.0489 149.533 25.0529 150.702C23.0169 151.895 22.0749 154.436 20.8969 156.376C19.0669 159.39 17.2739 162.416 15.4409 165.429C16.1859 162.677 17.0569 159.96 18.0499 157.287C18.1129 157.12 18.1719 156.952 18.2289 156.782Z" fill="#90A511"/>
<path d="M14.8431 167.447C15.5101 167.346 15.9831 167.013 16.4821 166.56C17.8581 165.311 19.9301 156.586 20.7251 154.499C21.5301 152.387 22.0021 151.252 24.0521 149.663C25.0161 148.915 26.0121 148.407 27.0961 147.937C28.5941 147.287 29.9791 146.379 31.1721 145.264C31.7751 144.7 32.3421 144.086 33.0181 143.616C34.3311 144.111 36.6771 145.995 36.5501 146.274C36.5141 146.233 36.4761 146.194 36.4401 146.153C36.4221 146.133 36.4031 146.112 36.3791 146.101C36.3351 146.081 36.2851 146.096 36.2401 146.112C35.8701 146.237 35.5001 146.362 35.1301 146.486C34.7331 146.62 34.3921 146.847 34.0001 146.972C33.1701 147.238 32.3731 147.595 31.5391 147.847C29.3361 148.514 27.0521 149.531 25.0551 150.7C23.9401 151.353 23.1531 152.412 22.4761 153.555C21.4831 156.148 20.5291 158.755 19.6231 161.379C19.0611 163.008 17.8361 167.125 16.3861 172.094C15.4681 172.037 14.5591 171.848 13.6931 171.536C14.1511 169.896 14.5481 168.49 14.8431 167.447Z" fill="#69820B"/>
<path d="M36.438 146.154C36.42 146.134 36.401 146.113 36.377 146.102C36.358 146.093 36.053 145.841 35.928 145.746C35.245 145.224 34.67 144.876 33.9 144.493C33.08 144.085 32.218 143.762 31.332 143.525C32.266 142.954 33.214 142.409 34.188 141.926C35.663 141.195 36.178 141.055 37.746 141.527C39.879 142.169 42.125 142.699 44.03 143.848C43.954 143.852 43.898 143.852 43.868 143.848C43.082 143.737 41.884 143.241 41.091 143.141C40.11 143.016 37.095 141.884 36.165 143.372C35.504 144.429 39.119 147.031 39.8 147.887C43.334 152.332 46.576 155.499 50.961 159.056C53.167 160.846 56.584 163.034 58.677 164.956C59.156 165.396 64.337 168.88 64.319 168.959C64.338 168.878 64.084 168.162 64.101 168.047L64.102 168.048C64.532 168.607 64.953 169.173 65.367 169.743C65.457 169.868 65.548 169.992 65.637 170.117C66.06 170.708 66.475 171.303 66.876 171.91C65.555 171.107 64.272 170.245 63.009 169.354C61.746 168.462 60.503 167.541 59.261 166.621C56.917 164.885 54.574 163.148 52.231 161.412C51.253 160.688 50.274 159.962 49.317 159.211C48.359 158.46 47.423 157.684 46.53 156.857C43.444 154.001 40.92 150.587 37.878 147.684C37.368 147.201 36.903 146.681 36.438 146.154Z" fill="#B1C636"/>
<path opacity="0.5" d="M47.9281 153.61C45.9701 151.688 44.0491 149.742 42.2631 147.657C41.1411 146.347 39.7091 145.386 38.6841 143.95C38.4901 143.679 38.3111 143.339 38.4251 143.026C38.4801 142.874 41.5151 144.497 41.7811 144.639C44.2081 145.945 45.1841 148.312 46.8941 150.376C47.6751 151.319 48.5111 152.215 49.3461 153.111C52.1421 156.111 54.9371 159.111 57.7321 162.111C55.1001 160.602 52.8991 158.46 50.7291 156.341C49.7951 155.429 48.8571 154.522 47.9281 153.61Z" fill="#69820B"/>
<path d="M21.0359 150.988C20.8379 151.297 20.6759 151.639 20.5189 152.018C19.9229 152.953 19.3569 153.908 18.8049 154.872C19.2719 153.246 19.7589 151.599 20.7369 150.264C21.8429 148.754 24.0999 148.174 25.6269 147.213C26.6469 146.571 27.6579 145.896 28.6739 145.225C27.9539 146.187 26.9859 146.974 25.9979 147.65C24.8789 148.415 23.5739 148.847 22.4469 149.596C21.7949 150.028 21.3679 150.469 21.0359 150.988Z" fill="#B1C636"/>
<path d="M34.876 177.031C33.234 178.067 31.672 179.306 30.118 180.548C23.276 186.02 18.239 193.958 14.021 201.94C12.02 205.727 10.069 209.54 8.21399 213.398C6.31199 217.353 4.62899 221.409 2.67099 225.315C2.57099 225.515 2.46599 225.731 2.47299 225.939C2.47899 226.16 2.60699 226.308 2.76399 226.421C2.96799 226.424 3.17099 226.428 3.37399 226.437C4.39599 226.48 5.06699 226.446 5.78999 226.204C6.36899 224.971 6.90999 223.721 7.47699 222.483C8.48499 220.282 9.48699 218.078 10.516 215.886C12.544 211.564 14.686 207.292 17.131 203.187C19.064 199.962 21.113 196.813 23.27 193.752C25.229 190.972 27.287 188.254 29.606 185.849C34.754 180.511 40.953 176.944 47.031 173.473C43.02 173.339 38.744 174.591 34.876 177.031Z" fill="#9DA31F"/>
<path d="M45.4051 173.495C41.4201 175.933 37.3771 178.301 33.4911 180.977C32.5641 181.615 31.6771 182.283 30.8231 182.982C29.6891 184.042 28.5941 185.164 27.5601 186.429C23.7861 191.047 20.0961 196.036 16.9321 201.163C11.9741 209.195 8.73609 217.908 4.91309 226.404C5.21409 226.366 5.50009 226.301 5.79109 226.204C6.37009 224.971 6.91109 223.721 7.47809 222.483C8.48609 220.282 9.48809 218.078 10.5171 215.886C12.5451 211.564 14.6871 207.292 17.1321 203.187C19.0651 199.962 21.1141 196.813 23.2711 193.752C25.2301 190.972 27.2881 188.254 29.6071 185.849C34.7551 180.511 40.9541 176.944 47.0321 173.473C46.4931 173.455 45.9501 173.464 45.4051 173.495Z" fill="#C4BC4E"/>
</svg>
